<svg width="463" height="160" viewBox="0 0 463 160" fill="none" xmlns="http://www.w3.org/2000/svg">
<g clip-path="url(#clip0_11_283)">
<mask id="mask0_11_283" style="mask-type:alpha" maskUnits="userSpaceOnUse" x="-1" y="-1" width="464" height="161">
<path fill-rule="evenodd" clip-rule="evenodd" d="M321.062 69.4118V69.4051L321.075 69.4118H321.062ZM320.974 69.4118H321.062C321.062 73.6161 321.057 77.8204 321.051 82.0248V82.0253V82.0257V82.0261V82.0266V82.0371C321.038 92.9729 321.024 103.91 321.102 114.85C321.129 118.621 321.458 122.392 321.786 126.155L321.786 126.156L321.786 126.158L321.786 126.16C321.862 127.034 321.938 127.908 322.011 128.782C322.051 129.238 322.744 129.835 323.249 130.003C323.908 130.218 324.716 130.197 325.415 130.05C326.361 129.851 327.291 129.571 328.22 129.292C328.606 129.176 328.992 129.06 329.379 128.95C329.229 128.579 329.077 128.209 328.925 127.84C328.533 126.883 328.141 125.928 327.777 124.965C327.589 124.469 327.428 123.919 327.428 123.396C327.42 121.94 327.385 120.481 327.35 119.022V119.021V119.02V119.019V119.018C327.259 115.214 327.168 111.409 327.562 107.653C327.767 105.728 328.874 103.88 329.968 102.055L329.968 102.055L329.969 102.054L329.969 102.054L329.969 102.054C330.35 101.418 330.729 100.786 331.068 100.153L331.186 99.933C332.399 97.67 333.628 95.3781 335.153 93.3316C336.107 92.0496 337.302 90.9434 338.497 89.8373L338.497 89.8372C338.952 89.4155 339.408 88.9938 339.85 88.5624C340.175 88.2464 340.519 87.9446 340.863 87.6433L340.863 87.643L340.863 87.6428C341.599 86.9978 342.332 86.3546 342.878 85.5775C343.08 85.289 342.137 84.0146 341.518 83.3907C340.438 82.2866 339.315 81.2175 338.192 80.1487L338.191 80.1477C335.979 78.0418 333.768 75.9375 331.889 73.5706C330.2 71.4442 329.211 68.4995 328.693 65.7695C327.892 61.5302 327.374 57.15 327.488 52.8504C327.555 50.473 328.629 48.0623 329.647 45.7745L329.648 45.7727C329.75 45.5437 329.851 45.3159 329.951 45.0895C331.532 41.5143 333.201 37.9256 335.294 34.6321C336.572 32.6198 338.564 30.9496 340.522 29.5141C342.488 28.0652 344.633 26.8534 346.775 25.6443L346.775 25.6441C347.28 25.3587 347.785 25.0734 348.288 24.7851C349.385 24.1546 350.569 23.6515 351.767 23.2423C353.516 22.6454 355.293 22.1222 357.09 21.6794C358.107 21.431 359.128 21.132 360.148 20.8328C362.711 20.0815 365.279 19.3288 367.829 19.372C371.705 19.4391 375.857 20.3848 379.316 22.0953C381.155 23.0067 382.479 25.0542 383.76 27.0356L383.761 27.0369L383.762 27.0379L383.762 27.0383C384.13 27.6081 384.495 28.1723 384.868 28.7025C386.288 30.7081 387.559 32.8613 388.569 35.0949C389.356 36.8322 389.962 38.7708 390.076 40.6557C390.097 41.0017 390.119 41.3484 390.141 41.6957L390.141 41.6969L390.141 41.6978C390.37 45.3208 390.602 48.9977 390.056 52.5351C389.665 55.0859 388.665 57.5484 387.667 60.0046C387.29 60.9329 386.913 61.8603 386.57 62.7912C385.736 65.0585 384.888 67.3391 383.838 69.5124C382.815 71.6254 381.644 73.6913 380.312 75.6232C379.76 76.4272 379.115 77.1743 378.472 77.9193C377.587 78.9457 376.704 79.9682 376.073 81.1302C375.716 81.7809 376.752 83.5182 377.546 84.3969C378.797 85.7875 380.123 87.1088 381.449 88.4298L381.449 88.43C382.599 89.5751 383.748 90.7199 384.847 91.9096C387.041 94.2774 389.201 96.6989 391.119 99.2881C392.041 100.536 392.64 102.172 392.909 103.715C393.326 106.098 393.614 108.501 393.902 110.904C394.056 112.187 394.209 113.47 394.383 114.749C394.411 114.958 394.576 115.146 394.74 115.334L394.74 115.334C394.814 115.419 394.887 115.503 394.948 115.588C395.113 115.4 395.285 115.217 395.456 115.034C395.841 114.622 396.226 114.21 396.543 113.75C398.265 111.282 399.968 108.806 401.623 106.291C401.895 105.877 402.095 105.419 402.295 104.961L402.295 104.96L402.295 104.96L402.295 104.959C402.461 104.579 402.627 104.198 402.835 103.843C403.506 102.683 404.205 101.54 404.903 100.397L404.903 100.397L404.903 100.396C405.303 99.7415 405.703 99.0869 406.098 98.4295C406.528 97.7143 406.959 97.0005 407.39 96.2869C408.521 94.4174 409.65 92.5486 410.741 90.6552C411.273 89.7329 411.766 88.7888 412.259 87.8447C412.752 86.9006 413.245 85.9565 413.776 85.0341C414.47 83.826 415.204 82.6413 415.939 81.4551C416.444 80.6393 416.95 79.8227 417.444 78.9972C417.51 78.8844 417.578 78.7717 417.645 78.6588L417.646 78.6581C418.167 77.7843 418.692 76.9044 419.085 75.972C419.607 74.7357 420.097 73.4846 420.587 72.2335C421.336 70.3213 422.086 68.4087 422.948 66.5476C423.713 64.8957 424.567 63.2853 425.421 61.6751C426.318 59.9834 427.215 58.292 428.008 56.553C428.809 54.7956 429.287 52.8369 429.569 50.9252C430.162 46.9811 430.687 43.0101 430.888 39.0324C430.956 37.7512 430.242 35.9535 429.267 35.2693C428.648 34.8333 426.535 35.6785 425.707 36.5371C423.412 38.9117 421.279 41.4874 419.408 44.2041C418.865 44.995 418.617 45.9758 418.368 46.9652C418.201 47.6288 418.033 48.2962 417.773 48.9129C417.458 49.6652 417.048 50.3764 416.639 51.0878C416.288 51.6958 415.938 52.3039 415.647 52.9376C415.001 54.3596 414.409 55.8286 413.985 57.3244C413.663 58.4625 413.403 59.6196 413.144 60.7765C412.916 61.7947 412.688 62.8127 412.417 63.8175C412.241 64.4716 412.071 65.1286 411.901 65.7861C411.23 68.379 410.557 70.9791 409.537 73.4297C409.126 74.4091 407.229 75.0463 405.903 75.3146C404.718 75.5588 403.502 75.6808 402.289 75.8026C400.603 75.9718 398.922 76.1406 397.337 76.636C395.451 77.2249 394.19 76.5531 392.854 75.8415C392.683 75.7506 392.511 75.6591 392.337 75.5695C389.82 74.2816 389.773 68.8953 391.099 67.2989C391.321 67.0305 391.429 66.6214 391.482 66.2592C391.65 65.1317 391.79 63.9982 391.929 62.865L391.929 62.8627L391.93 62.8623L391.93 62.8618L391.93 62.8614L391.93 62.861C392.227 60.4492 392.523 58.0392 393.091 55.6944C394.033 51.8308 395.264 47.9872 396.825 44.3248C398.319 40.8167 399.928 37.1542 402.357 34.3034C404.354 31.9605 407.001 30.1394 409.617 28.3401L409.619 28.3391C410.238 27.9134 410.855 27.4889 411.461 27.0591C413.335 25.7287 415.401 24.66 417.453 23.5985L417.908 23.3631C418.823 22.8879 419.8 22.5363 420.775 22.1855C421.162 22.0461 421.549 21.9068 421.932 21.7599L422.802 21.4241L422.804 21.4235C424.653 20.7097 426.503 19.9956 428.358 19.3116C428.762 19.164 429.22 19.1171 429.657 19.1171C431.134 19.1049 432.612 19.0996 434.089 19.0944C435.862 19.088 437.635 19.0817 439.408 19.0634C443.095 19.0299 445.693 21.0154 447.792 23.7186C448.78 24.994 449.69 26.3297 450.599 27.6652L450.599 27.6655C451.349 28.7672 452.099 29.8688 452.893 30.9361C454.494 33.0893 454.911 39.3544 453.572 41.6283C453.398 41.9228 453.37 42.2949 453.342 42.6718C453.323 42.9215 453.304 43.1733 453.243 43.4058C453.038 44.1514 452.836 44.8981 452.635 45.6449C452.01 47.9619 451.385 50.2792 450.652 52.5619C449.797 55.2316 448.855 57.8812 447.718 60.4435C446.845 62.4181 445.88 64.353 444.915 66.2882L444.915 66.2886L444.915 66.2889L444.915 66.2893L444.914 66.2897L444.913 66.293C444.243 67.6366 443.573 68.9803 442.934 70.3375C442.491 71.2782 442.089 72.2389 441.687 73.1993L441.686 73.2008L441.686 73.2016C441.128 74.5347 440.57 75.8674 439.905 77.1458C439.299 78.306 438.586 79.4109 437.873 80.5159L437.873 80.5161C437.296 81.4108 436.719 82.3055 436.198 83.2298C435.444 84.5677 434.726 85.9267 434.009 87.2852L434.008 87.2868C433.003 89.1901 431.998 91.0927 430.895 92.9359C429.771 94.8078 428.557 96.6249 427.343 98.4416C426.39 99.8668 425.438 101.292 424.529 102.743C423.855 103.818 423.241 104.93 422.627 106.042C421.942 107.282 421.258 108.52 420.492 109.705C419.67 110.977 418.748 112.183 417.825 113.389L417.825 113.389L417.825 113.39L417.824 113.391L417.824 113.391C417.214 114.189 416.605 114.986 416.024 115.803C415.05 117.175 414.101 118.566 413.152 119.956C412.455 120.978 411.758 121.999 411.051 123.013C410.66 123.572 410.249 124.118 409.837 124.664C409.172 125.547 408.507 126.43 407.928 127.367C407.691 127.748 407.679 128.268 407.667 128.788C407.662 129.018 407.657 129.248 407.632 129.466C407.76 129.413 407.887 129.347 408.015 129.281C408.305 129.132 408.596 128.981 408.891 128.977C409.566 128.956 410.241 128.93 410.917 128.904H410.918H410.918L410.919 128.904C413.158 128.818 415.398 128.732 417.625 128.856C421.239 129.058 424.848 129.336 428.456 129.615L428.459 129.615L428.46 129.615L428.461 129.615L428.462 129.615L428.463 129.615C430.974 129.809 433.484 130.003 435.996 130.171C436.574 130.208 437.166 130.07 437.757 129.932C438.025 129.87 438.293 129.807 438.56 129.761C438.469 129.502 438.376 129.243 438.284 128.984C438.083 128.417 437.881 127.85 437.692 127.28C437.591 126.971 437.49 126.649 437.463 126.334C437.3 123.857 437.14 121.381 436.981 118.903L436.979 118.877L436.978 118.85L436.977 118.845C436.633 113.478 436.287 108.109 435.902 102.743C435.871 102.324 435.678 101.903 435.489 101.489C435.263 100.994 435.042 100.509 435.108 100.053C435.303 98.7515 435.653 97.0813 436.568 96.3367C440.895 92.8151 445.942 91.5407 451.54 92.0773C454.454 92.3523 455.766 93.4658 455.914 96.5312C456.15 101.428 456.695 106.325 457.361 111.188C457.872 114.902 458.598 118.592 459.323 122.278L459.323 122.279C459.439 122.866 459.554 123.453 459.669 124.04C459.898 125.219 460.102 126.407 460.307 127.596L460.307 127.597C460.873 130.886 461.44 134.181 462.522 137.294C463.888 141.232 462.031 143.479 459.777 145.947C459.417 146.339 459.117 146.79 458.817 147.24C458.445 147.798 458.074 148.356 457.59 148.798C455.773 150.462 451.305 150.173 449.023 148.825C447.604 147.986 445.827 147.591 444.158 147.363C439.495 146.719 434.811 146.202 430.128 145.753C428.308 145.578 426.463 145.502 424.62 145.425H424.62H424.619C420.874 145.271 417.136 145.116 413.628 144.136C410.847 143.36 408.314 143.826 405.798 144.289C404.028 144.614 402.266 144.938 400.432 144.827C398.138 144.692 395.814 144.983 393.494 145.274C390.969 145.59 388.447 145.906 385.971 145.672C384.014 145.489 382.159 144.343 380.289 143.186L380.288 143.186C379.277 142.561 378.262 141.933 377.223 141.453C376.416 141.077 375.252 141.098 374.377 141.352C373.8 141.522 373.271 141.849 372.74 142.178C372.262 142.474 371.781 142.771 371.261 142.956C370.252 143.315 369.211 143.594 368.17 143.873C367.387 144.083 366.603 144.294 365.831 144.539C365.021 144.794 364.218 145.103 363.416 145.412C361.819 146.027 360.225 146.641 358.577 146.833C357.113 147.004 355.612 146.817 354.105 146.63L354.105 146.63C353.022 146.495 351.936 146.359 350.858 146.356C349.994 146.356 349.133 146.642 348.268 146.928C347.827 147.074 347.385 147.22 346.942 147.329C346.471 147.443 345.98 147.477 345.495 147.503C345.378 147.507 345.26 147.465 345.14 147.422C345.046 147.388 344.951 147.354 344.856 147.342C343.491 147.182 342.127 146.997 340.763 146.812L340.763 146.812C337.681 146.393 334.598 145.975 331.505 145.84C319.023 145.297 306.527 144.807 294.031 144.726C291.916 144.712 289.794 145.48 287.675 146.247L287.675 146.247C286.746 146.583 285.819 146.918 284.892 147.188C284.677 147.249 284.368 147.55 284.381 147.725C284.571 150.957 282.517 151.429 280.44 151.906L280.44 151.906C279.874 152.036 279.307 152.167 278.782 152.353C277.941 152.655 276.871 153.145 276.521 153.849C275.26 156.397 273.031 157.235 270.771 158.086C269.872 158.424 268.967 158.765 268.117 159.215C264.95 160.895 264.324 159.583 263.435 157.721L263.435 157.72C263.274 157.382 263.104 157.026 262.908 156.666C261.931 154.867 260.68 153.22 259.428 151.57C258.602 150.483 257.776 149.394 257.027 148.261C256.436 147.37 255.958 146.404 255.481 145.439L255.48 145.438L255.48 145.438L255.48 145.438L255.48 145.438L255.48 145.438C255.016 144.5 254.552 143.563 253.985 142.694C253.439 141.851 252.784 141.08 252.13 140.309L252.13 140.309L252.129 140.309L252.129 140.309L252.129 140.309C251.487 139.552 250.845 138.796 250.305 137.972C249.41 136.61 248.604 135.19 247.798 133.768C247.269 132.837 246.74 131.905 246.186 130.989C245.373 129.642 244.513 128.329 243.653 127.017C243.425 126.668 243.197 126.32 242.97 125.972C241.792 124.16 240.615 122.356 239.424 120.558C239.032 119.965 238.635 119.377 238.238 118.789L238.237 118.788L238.236 118.786C237.582 117.819 236.929 116.851 236.301 115.863C235.264 114.23 234.276 112.56 233.29 110.894L233.139 110.638C232.801 110.064 232.473 109.486 232.145 108.908C231.486 107.748 230.829 106.59 230.097 105.479C229.929 105.218 228.913 105.211 228.549 105.459C228.159 105.728 227.89 106.439 227.89 106.962C227.817 114.213 227.772 121.468 227.727 128.722L227.727 128.732C227.714 130.808 227.701 132.884 227.688 134.96C227.683 135.893 227.67 136.828 227.658 137.763C227.639 139.232 227.619 140.703 227.627 142.171C227.634 144.223 226.813 145.337 224.741 146.095C223.692 146.477 222.731 147.133 221.775 147.784C220.651 148.551 219.534 149.312 218.294 149.616C215.575 150.283 212.718 150.407 209.875 150.53H209.875L209.873 150.53L209.871 150.53L209.869 150.53L209.867 150.53C209.166 150.561 208.466 150.591 207.77 150.629C207.541 150.643 207.016 149.388 207.016 148.724C206.993 144.438 207.002 140.153 207.011 135.868V135.867V135.866V135.865V135.864C207.018 132.438 207.025 129.013 207.016 125.589C206.986 115.448 206.948 105.307 206.91 95.1649V95.1593V95.1536V95.1479V95.1422C206.853 79.915 206.795 64.6868 206.767 49.4562C206.74 36.7115 206.747 23.9668 207.016 11.2288C207.037 10.1921 208.122 9.13551 209.139 8.14549C209.438 7.85427 209.732 7.5688 209.99 7.29131C210.932 6.27844 212.036 5.38631 213.173 4.58138C214.304 3.78316 215.501 2.99165 216.78 2.48856C217.069 2.37548 217.358 2.26099 217.647 2.14629C219.883 1.26083 222.15 0.363006 224.485 0.00669659C225.42 -0.134166 227.58 1.58302 227.594 2.48186C227.71 9.15992 227.722 15.838 227.734 22.516C227.745 28.9718 227.757 35.4275 227.863 41.8832C227.968 48.512 228.316 55.1333 228.665 61.7556L228.666 61.7579L228.666 61.7646C228.787 64.072 228.909 66.3794 229.02 68.6874C229.034 68.9881 229.222 69.2769 229.412 69.5677C229.505 69.7114 229.6 69.8557 229.673 70.0021C229.881 69.7908 230.1 69.5869 230.32 69.3827C230.799 68.9386 231.278 68.4935 231.638 67.9696C233.542 65.206 235.386 62.3955 237.216 59.5782C237.758 58.7458 238.279 57.9011 238.801 57.0567C239.498 55.9279 240.195 54.7997 240.938 53.7022C241.574 52.7589 242.253 51.842 242.933 50.9244C243.626 49.989 244.32 49.053 244.968 48.0879C245.461 47.3522 245.904 46.5762 246.346 45.8009C247.044 44.5757 247.741 43.3523 248.636 42.2924C250.903 39.6093 253.407 37.114 255.964 34.6992L256.155 34.5184L256.341 34.3413L256.352 34.331C258.088 32.6825 259.888 30.9737 261.98 29.9501C263.336 29.2861 265.191 29.4972 266.882 29.6895L266.882 29.6896C267.104 29.7148 267.323 29.7397 267.538 29.7623C267.907 29.8052 268.215 31.0214 268.429 31.8702L268.465 32.0109L268.487 32.0966C268.556 32.3633 268.629 32.6306 268.703 32.8984C269.04 34.1329 269.38 35.3786 269.402 36.6243C269.422 37.7043 268.884 38.8781 268.345 39.8776C267.609 41.2269 266.786 42.5261 265.963 43.8247C265.62 44.366 265.277 44.9071 264.941 45.4517C264.727 45.7947 264.515 46.1376 264.303 46.4802C263.96 47.0355 263.617 47.5898 263.272 48.1415C262.831 48.8419 262.386 49.541 261.941 50.2405L261.94 50.2423L261.938 50.245L261.936 50.2487C261.41 51.0739 260.885 51.8998 260.365 52.7296C259.691 53.805 259.028 54.8879 258.365 55.9711L258.365 55.9713C256.869 58.4149 255.372 60.8596 253.75 63.2205C252.725 64.7094 251.552 66.0979 250.379 67.4873C249.633 68.3702 248.887 69.2535 248.178 70.1631C247.689 70.7921 247.181 71.4141 246.674 72.0369L246.673 72.0373C245.08 73.9908 243.481 75.9513 242.405 78.1587C241.826 79.3393 243.037 81.6669 243.898 83.2096C244.824 84.8682 245.934 86.422 247.046 87.9776L247.046 87.9777L247.046 87.9779L247.046 87.978L247.047 87.9782C247.576 88.7188 248.106 89.4597 248.616 90.2125C248.965 90.7282 249.316 91.2427 249.666 91.7569L249.667 91.758C251.03 93.759 252.391 95.7569 253.676 97.8057C254.218 98.6689 254.697 99.5742 255.176 100.48L255.176 100.48L255.176 100.48C255.691 101.453 256.206 102.426 256.798 103.346C258.005 105.224 259.272 107.067 260.539 108.909L260.541 108.911C261.287 109.997 262.034 111.082 262.767 112.174C263.327 113.008 263.872 113.855 264.417 114.701L264.418 114.702L264.419 114.704C265.332 116.123 266.245 117.543 267.235 118.908C267.949 119.893 268.725 120.833 269.501 121.772L269.501 121.773C270.421 122.887 271.34 124.001 272.154 125.187C273.251 126.783 274.314 128.541 274.819 130.385C275.828 134.081 278.816 135.342 281.925 133.095C282.053 133.001 282.228 132.954 282.389 132.927C283.491 132.771 284.593 132.621 285.696 132.47L285.696 132.47L285.696 132.47L285.697 132.47L285.697 132.47C288.143 132.136 290.589 131.802 293.028 131.405C295.141 131.063 297.227 130.553 299.3 130.01C299.562 129.943 299.791 129.211 299.791 128.782C299.78 125.522 299.773 122.261 299.767 119V119V118.999V118.998V118.997C299.745 108.398 299.724 97.7976 299.549 87.2008C299.471 82.4242 299.136 77.6512 298.802 72.8791L298.801 72.8753L298.801 72.8714L298.801 72.8676L298.801 72.8637C298.673 71.04 298.545 69.2164 298.432 67.3928C298.405 66.9501 298.129 66.1451 298.008 66.1518C296.985 66.2122 295.955 66.3866 294.953 66.6214C294.822 66.6514 294.718 66.8025 294.616 66.9509C294.513 67.101 294.412 67.2485 294.286 67.2653C293.303 67.4109 292.32 67.583 291.336 67.7551C288.784 68.2015 286.231 68.6482 283.681 68.6337C280.956 68.6136 278.634 66.3262 279.038 63.7236C279.341 61.765 281.474 59.8465 283.21 58.4044C284.251 57.5433 285.447 56.8581 286.64 56.1745C288.031 55.3777 289.418 54.5831 290.552 53.5144C294.152 50.1203 295.652 45.6194 296.265 40.7026C296.682 37.342 297.402 33.9211 298.654 30.7886C299.427 28.8433 301.211 27.0658 302.96 25.7913C305.665 23.8192 308.64 22.1557 311.675 20.7336C313.498 19.8751 315.941 18.8957 317.589 19.4592C319.581 20.1367 321.095 22.0484 321.062 24.9797C320.918 35.906 320.939 46.8323 320.959 57.7586C320.967 61.643 320.974 65.5274 320.974 69.4118ZM367.091 107.042C369.824 110.442 372.755 114.089 372.096 119.203V119.197C371.958 119.888 371.829 120.582 371.701 121.275L371.701 121.276L371.701 121.278C371.372 123.054 371.043 124.831 370.555 126.562C370.333 127.34 369.404 128.286 368.63 128.474C368.048 128.615 367.457 128.775 366.863 128.936L366.862 128.936L366.861 128.936C364.582 129.554 362.25 130.186 360.104 129.835C358.057 129.505 356.135 127.896 354.348 126.401L354.347 126.4C354.067 126.165 353.79 125.934 353.516 125.71C351.848 124.348 350.441 122.618 349.122 120.894C348.221 119.713 347.151 118.298 347.063 116.93C346.781 112.543 346.626 108.095 347.043 103.729C347.155 102.505 348.117 101.349 349.063 100.21C349.424 99.776 349.783 99.3443 350.091 98.9125C350.179 98.7899 350.268 98.6606 350.359 98.5286C350.876 97.7794 351.451 96.9448 352.144 96.7794C352.474 96.6998 352.697 96.3334 352.923 95.9601C353.384 95.2016 353.861 94.4147 355.3 95.9477C356.752 97.4957 358.439 98.8434 360.122 100.187C362.259 101.895 364.389 103.596 366.019 105.694C366.367 106.141 366.728 106.589 367.091 107.042ZM368.361 51.9724C368.256 51.9895 368.151 52.0067 368.045 52.0253V52.032C368.045 52.6347 368.085 53.2496 368.126 53.8645V53.8648C368.216 55.2414 368.307 56.6185 367.944 57.861C367.319 59.9952 366.363 62.0384 365.407 64.0791C365.065 64.8093 364.724 65.5391 364.398 66.2726C364.214 66.6886 363.985 67.0896 363.756 67.4892L363.756 67.4898C363.392 68.1273 363.03 68.761 362.857 69.4453C361.961 72.9967 360.835 71.5975 359.864 70.3913C359.603 70.0665 359.353 69.7557 359.122 69.5594C358.922 69.3896 358.72 69.2199 358.519 69.0499C356.513 67.3584 354.47 65.6362 352.911 63.5761L352.767 63.3857C350.911 60.9309 348.822 58.1695 348.409 55.3188C347.898 51.8308 348.544 47.8799 349.768 44.526C350.546 42.3873 352.018 40.5022 353.49 38.6172L353.491 38.6167L353.491 38.6163L353.491 38.6159L353.492 38.6155C354.134 37.7933 354.776 36.9712 355.36 36.1279C355.453 35.993 355.538 35.8495 355.624 35.7059C355.833 35.3571 356.042 35.0078 356.343 34.7797C357.002 34.2833 358.254 33.465 358.442 33.6394C359.134 34.2911 359.858 34.9286 360.583 35.5677L360.583 35.5679C362.799 37.5202 365.032 39.4877 366.436 41.9234C367.569 43.8841 367.895 46.3049 368.22 48.7267C368.365 49.8014 368.509 50.8763 368.724 51.9113C368.605 51.9329 368.484 51.9525 368.362 51.9723L368.361 51.9724ZM78.3984 28.3812C78.3831 30.5117 78.3678 32.6423 78.3678 34.773V36.1145L78.3623 39.2551C78.3516 45.5279 78.3409 51.8043 78.3005 58.0757C78.3005 58.4158 78.1616 58.7527 78.0221 59.0908C77.958 59.2462 77.8938 59.4018 77.843 59.5581C77.77 59.5218 77.6855 59.4916 77.6011 59.4614C77.4207 59.3969 77.241 59.3327 77.1768 59.2093C76.9833 58.8409 76.8209 58.4505 76.6589 58.0612L76.6589 58.0611L76.6589 58.0611L76.6588 58.061L76.6588 58.0609C76.3814 57.3942 76.1052 56.7304 75.6762 56.1841L75.3563 55.7762C73.5779 53.5074 71.7849 51.2201 69.7343 49.2013C68.0117 47.511 65.9458 46.1292 63.8934 44.8279C63.4673 44.5574 63.0372 44.267 62.6033 43.9739C60.9061 42.8275 59.1492 41.6409 57.3325 41.4539C56.4314 41.3625 55.5292 41.1697 54.6223 40.9758L54.6222 40.9758C52.3324 40.4864 50.0121 39.9904 47.6021 41.1051C46.3663 41.6777 45.0516 42.0889 43.7388 42.4996C42.2066 42.9789 40.677 43.4573 39.2781 44.1907C36.9472 45.4145 34.8305 47.0813 32.7347 48.7318L32.7346 48.7319C32.4527 48.9539 32.1712 49.1756 31.8895 49.3959C30.4548 50.5153 29.077 51.7057 27.6984 52.8969L27.6983 52.897C26.7557 53.7114 25.8127 54.5262 24.8508 55.3188C24.3821 55.7082 23.8475 56.0224 23.3134 56.3364L23.3133 56.3365C23.0653 56.4822 22.8175 56.628 22.5764 56.7811C22.5333 56.5399 22.4808 56.2986 22.4284 56.0572L22.4283 56.0571C22.3086 55.5064 22.1887 54.9548 22.1793 54.3999C22.148 52.1344 22.1359 49.869 22.1238 47.6035C22.1048 44.0265 22.0857 40.4495 21.9909 36.8725C21.6948 25.6437 21.3315 14.4149 20.8268 3.19288C20.7931 2.42819 19.38 1.16714 18.5658 1.1336C17.583 1.09573 16.5801 1.44857 15.5783 1.80098C15.1603 1.94805 14.7425 2.09504 14.3264 2.21354C13.4701 2.45598 12.6168 2.70955 11.7641 2.96298L11.7641 2.96298C9.80906 3.54399 7.8565 4.12427 5.87457 4.56797C2.02549 5.43327 0.0336614 9.85367 0.0807655 13.2344C0.167975 19.4806 0.25751 25.7268 0.347046 31.9731C0.630575 51.7529 0.914105 71.5328 1.12379 91.3126C1.13743 92.482 0.89354 93.6515 0.649654 94.8209C0.412314 95.9589 0.174974 97.097 0.174974 98.235C0.174974 99.3674 0.413942 100.5 0.65291 101.632C0.886721 102.74 1.12053 103.848 1.13051 104.956C1.23818 117.044 1.21126 129.131 1.13051 141.218C1.12703 141.83 0.885304 142.436 0.642756 143.044C0.41697 143.61 0.190472 144.178 0.154786 144.753C-0.0134427 147.423 -0.100922 150.126 0.168245 152.782C0.255724 153.587 1.78997 155.009 2.34176 154.875C4.78445 154.278 7.26751 153.487 9.4343 152.246C12.4893 150.495 15.4434 148.483 18.1486 146.229C20.3355 144.411 22.6638 144.371 24.8575 146.263C26.5533 147.718 28.5586 149.18 30.6581 149.717C33.9756 150.562 37.5286 151.152 40.9133 150.904C44.4188 150.647 47.89 149.748 51.3352 148.856L51.3355 148.856C51.9244 148.703 52.5125 148.551 53.0998 148.402C54.0378 148.164 54.8845 147.433 55.6887 146.739L55.6888 146.739L55.6889 146.739L55.6896 146.738C55.837 146.611 55.9831 146.485 56.128 146.363C57.4962 145.218 58.8423 144.039 60.1885 142.86L60.189 142.86L60.1894 142.859L60.1901 142.859L60.1911 142.858C61.0686 142.089 61.9463 141.32 62.8302 140.561C63.2566 140.196 63.7072 139.853 64.1575 139.511L64.1577 139.511C64.9652 138.897 65.7718 138.283 66.437 137.542C68.5904 135.141 70.6899 132.679 72.5875 130.083C73.6953 128.574 74.6603 126.958 75.6254 125.342C76.0966 124.552 76.5678 123.763 77.0557 122.987C77.3428 122.531 77.6581 122.092 77.9736 121.653C78.0943 121.486 78.215 121.318 78.3342 121.149C78.4657 121.37 78.6333 121.591 78.8006 121.811L78.8007 121.811L78.8007 121.812L78.8008 121.812L78.8009 121.812C79.1555 122.279 79.5094 122.745 79.5185 123.215C79.5716 126.629 79.5954 130.043 79.6191 133.457L79.6191 133.46C79.6556 138.705 79.6922 143.949 79.8348 149.194C79.8617 150.213 81.4565 152.132 82.1093 152.045C85.2047 151.635 88.2732 150.824 91.2542 149.844C91.9612 149.612 92.5764 149.115 93.1938 148.616C93.7692 148.152 94.3466 147.685 95.0023 147.43C99.4705 145.686 100.439 144.532 100.439 139.702C100.444 135.245 100.454 130.789 100.463 126.332C100.492 112.557 100.521 98.7821 100.419 85.0073C100.347 75.0443 100.172 65.0837 99.9979 55.1226V55.1223V55.122V55.1217L99.9978 55.1192C99.8815 48.4763 99.7652 41.8331 99.6791 35.1889C99.6065 29.478 99.5795 23.7694 99.5524 18.0604C99.5318 13.711 99.5112 9.36148 99.4705 5.01068C99.4638 4.44052 99.1408 3.40752 98.8851 3.38069C98.3076 3.32298 97.7243 3.24946 97.1391 3.17568C95.1394 2.92361 93.1169 2.66866 91.2273 3.03189C88.5625 3.54168 85.9045 4.7692 83.5829 6.22478C83.351 6.3702 83.1156 6.51383 82.8794 6.65793C80.566 8.06927 78.1784 9.52582 78.3005 13.1472C78.4712 18.2226 78.4348 23.3014 78.3984 28.3812ZM60.3641 97.4234C60.2732 97.4317 60.1823 97.4401 60.0914 97.4502L60.0847 97.4569C60.0847 98.3459 60.1131 99.2387 60.1415 100.131V100.132V100.132V100.132V100.132C60.2058 102.156 60.2701 104.179 60.004 106.157C59.6934 108.456 59.1008 110.718 58.508 112.98L58.508 112.98L58.5079 112.981C58.2273 114.052 57.9467 115.123 57.6959 116.198C57.5666 116.754 57.4322 117.31 57.2978 117.866L57.2976 117.867L57.2976 117.867C56.879 119.597 56.4601 121.329 56.1953 123.081C55.6704 126.548 51.5319 130.888 48.0664 129.875C47.5452 129.723 47.0218 129.576 46.4983 129.43C42.8386 128.408 39.1776 127.385 36.2635 124.134C33.4507 120.994 31.506 117.587 29.8439 113.904C29.192 112.464 28.6868 110.959 28.1812 109.454C27.8203 108.379 27.4593 107.304 27.0445 106.251C24.7431 100.395 24.4874 94.264 25.0056 88.16C25.3151 84.464 26.1226 80.6473 27.5559 77.2397C28.968 73.8954 31.0124 70.8083 33.04 67.7466C33.3508 67.2773 33.6612 66.8086 33.9688 66.3397C35.1733 64.5017 36.5394 62.4357 38.363 61.443C39.8568 60.6314 42.2726 60.8326 44.0357 61.3759C45.8794 61.9461 47.703 63.2071 49.0421 64.6292C51.1955 66.9098 53.1267 69.4655 54.809 72.115C55.8469 73.7495 56.6545 75.5271 57.4621 77.3048C57.8013 78.0513 58.1404 78.7978 58.4966 79.5338C58.611 79.7753 58.685 80.057 58.7187 80.3253C59.1417 84.0499 59.5589 87.7773 59.976 91.5038L59.9762 91.5052L59.9763 91.5065L59.9765 91.5079L59.9766 91.5092L59.9784 91.5246L59.9795 91.5344C60.1982 93.4889 60.417 95.4431 60.6365 97.3965C60.5457 97.4066 60.4549 97.415 60.3641 97.4234ZM136.131 102.293C136.131 98.331 136.137 94.3687 136.143 90.4065C136.159 79.8397 136.175 69.273 136.077 58.7062C136.054 56.2091 135.725 53.7181 135.395 51.2271L135.395 51.2268C135.236 50.0309 135.078 48.835 134.953 47.6384C134.496 43.2516 137.463 41.0447 140.525 38.858C141.104 38.4436 141.65 37.9449 142.194 37.4484L142.194 37.4483C143.2 36.5303 144.198 35.6196 145.377 35.2626C147.889 34.4958 150.552 34.2134 153.204 33.9322L153.204 33.9321C153.869 33.8616 154.534 33.7911 155.195 33.7131C155.329 33.6997 155.76 35.001 155.814 35.7053C156.057 39.0303 156.283 42.3571 156.509 45.6848C156.708 48.6206 156.908 51.5572 157.119 54.4938C157.146 54.9029 157.503 55.614 157.718 55.6207C158.337 55.6408 159.145 55.5603 159.562 55.178C160.429 54.3686 161.248 53.5077 162.067 52.6469L162.067 52.6469C162.755 51.924 163.442 51.2013 164.158 50.5094C165.712 49.0068 167.287 47.4976 168.996 46.1829C170.732 44.848 172.563 43.5735 174.507 42.5808C175.973 41.8288 177.5 41.2004 179.029 40.5712C180.119 40.1228 181.21 39.674 182.28 39.18C184.298 38.2476 189.648 39.2135 191.35 40.7764C191.946 41.3231 192.611 41.7992 193.276 42.2749C194.03 42.8148 194.784 43.3543 195.435 43.9961C196.377 44.9285 197.286 46.1158 197.656 47.35C198.288 49.4697 198.605 51.71 198.84 53.9236C200.855 72.543 200.503 91.1965 200.151 109.849C199.963 119.849 199.774 129.849 199.95 139.843C199.984 141.73 199.291 143.63 198.601 145.523L198.601 145.523L198.601 145.523L198.601 145.524C198.312 146.315 198.024 147.105 197.79 147.893C197.71 148.168 197.198 148.389 196.841 148.496C194.987 149.068 193.124 149.617 191.263 150.166L191.262 150.167L191.262 150.167L191.257 150.168C190.608 150.36 189.96 150.551 189.312 150.743C189.258 150.757 189.204 150.77 189.15 150.777C188.409 150.91 187.666 151.079 186.924 151.248L186.923 151.248L186.923 151.249C185.117 151.66 183.313 152.071 181.539 151.957C180.335 151.884 178.269 149.858 178.262 148.704C178.116 131.922 178.063 115.137 178.01 98.3522C177.975 87.3097 177.94 76.2674 177.879 65.2262C177.869 63.7559 177.456 62.2888 177.043 60.8227C176.853 60.1483 176.663 59.4742 176.513 58.8001C176.146 58.931 175.758 59.0362 175.37 59.1413C174.505 59.3756 173.641 59.6097 173.014 60.1283C171.507 61.3808 170.199 62.8923 168.905 64.3881C168.772 64.5425 168.638 64.6968 168.505 64.8505C167.677 65.7963 166.856 66.8226 166.331 67.9428C164.562 71.726 162.799 75.5226 161.291 79.4131C160.798 80.6815 160.532 82.0339 160.265 83.3903L160.265 83.3904L160.265 83.3906L160.265 83.3907C160.099 84.2363 159.932 85.0835 159.71 85.9129C159.306 87.4221 158.861 88.921 158.416 90.4199L158.416 90.4202L158.415 90.4206L158.415 90.421C158.059 91.6197 157.703 92.8185 157.368 94.0225C157.207 94.5994 157.193 95.2366 157.187 95.8471C157.158 102.146 157.133 108.444 157.107 114.743C157.074 123.141 157.04 131.539 156.998 139.937C156.985 142.654 154.138 145.31 151.561 146.028C150.68 146.274 149.898 146.894 149.117 147.511C148.306 148.153 147.497 148.794 146.581 149.013C144.033 149.62 141.367 149.768 138.713 149.915H138.713C138.116 149.948 137.52 149.981 136.925 150.019C136.757 150.032 136.319 148.858 136.319 148.241C136.291 135.112 136.291 121.987 136.292 108.859L136.292 102.307H136.144L136.131 102.293ZM129.431 99.0545L129.431 99.0311C129.423 95.0497 129.415 91.0682 129.415 87.0867V87.0934H129.382C129.382 83.4767 129.381 79.8596 129.38 76.2422V76.2416V76.2203C129.377 65.3738 129.375 54.5255 129.395 43.6809C129.402 39.5556 126.831 37.0201 122.962 37.6506C122.214 37.7748 121.503 38.1642 120.796 38.5513L120.796 38.5514L120.796 38.5514C120.549 38.6868 120.303 38.8218 120.055 38.9452C119.511 39.2148 118.963 39.4787 118.415 39.7426L118.415 39.7427L118.414 39.7428C116.74 40.5491 115.066 41.3557 113.494 42.3259C112.901 42.6941 112.438 43.2624 111.972 43.834C111.598 44.2933 111.222 44.7547 110.775 45.1163C108.817 46.6994 106.947 48.2153 107.249 51.1265C107.339 52.0037 107.32 52.8917 107.302 53.7802V53.7802V53.7803V53.7806V53.7809C107.291 54.2918 107.28 54.8029 107.29 55.3121C107.429 62.924 107.571 70.5358 107.713 78.1477C107.997 93.3757 108.281 108.604 108.541 123.832C108.592 126.965 108.555 130.101 108.517 133.238C108.5 134.695 108.483 136.152 108.474 137.61C108.474 137.838 108.467 138.059 108.447 138.28C108.352 139.177 108.238 140.075 108.123 140.973C107.824 143.32 107.524 145.668 107.572 148.007C107.599 149.019 109.423 150.824 110.432 150.831C112.621 150.85 114.81 150.495 116.998 150.139C117.824 150.005 118.65 149.871 119.476 149.757C119.685 149.73 119.894 149.616 120.082 149.509C120.518 149.269 120.963 149.041 121.407 148.814L121.408 148.813L121.409 148.813C122.44 148.285 123.47 147.758 124.382 147.074C124.6 146.911 124.832 146.743 125.071 146.572C126.319 145.675 127.721 144.668 127.942 143.519C128.789 139.139 129.301 134.631 129.355 130.171C129.471 119.799 129.451 109.427 129.431 99.0545ZM128.117 14.254C128.117 15.1828 128.101 16.1129 128.085 17.0429C128.048 19.1889 128.011 21.3345 128.17 23.4637C128.362 26.1163 126.645 27.005 124.862 27.9276C124.769 27.9755 124.676 28.0235 124.584 28.0719C123.764 28.4989 122.947 28.9366 122.131 29.3745C119.65 30.7045 117.166 32.0364 114.564 33.0759C112.962 33.7132 110.823 33.7132 109.16 33.2235C108.299 32.9686 107.471 31.0233 107.431 29.8227C107.273 24.8481 107.29 19.8736 107.308 14.8951C107.311 13.9526 107.315 13.01 107.317 12.0672C107.323 8.90118 109.847 5.60768 112.909 4.62834C114.081 4.25396 115.248 3.86086 116.416 3.4677L116.416 3.46759C119.077 2.57167 121.739 1.67541 124.456 0.99945C126.892 0.389045 127.935 2.17331 127.989 4.37345C128.05 6.66846 128.035 8.96347 128.021 11.2585V11.2599C128.015 12.2579 128.009 13.2559 128.009 14.254H128.11H128.117ZM265.739 92.2124C265.733 92.9991 265.728 93.7859 265.728 94.5726H265.647C265.647 95.3527 265.649 96.1335 265.65 96.9146C265.653 98.4775 265.656 100.041 265.647 101.602C265.627 105.131 266.805 106.486 270.344 106.439C271.281 106.426 272.207 106.157 273.138 105.886C273.731 105.713 274.326 105.54 274.927 105.432C275.896 105.259 276.889 105.147 277.881 105.036C279.918 104.807 281.949 104.578 283.755 103.816C285.505 103.078 287.557 100.757 287.705 98.993C288.092 94.4416 287.99 89.8519 287.889 85.2646C287.863 84.0985 287.837 82.9326 287.82 81.7675C287.786 79.5808 284.273 77.3001 282.329 77.9441C281.206 78.317 280.054 78.5869 278.902 78.8568C278.417 78.9704 277.932 79.0839 277.45 79.2051C277.329 79.2359 277.203 79.2539 277.076 79.2719C276.871 79.301 276.667 79.3301 276.488 79.4131C275.662 79.7958 274.845 80.2016 274.027 80.6074C272.28 81.4748 270.533 82.3418 268.709 82.9816C266.751 83.6725 265.647 84.5378 265.708 86.7044C265.764 88.5404 265.751 90.3764 265.739 92.2124Z" fill="white"/>
</mask>
<g mask="url(#mask0_11_283)">
<rect width="463" height="160" fill="white"/>
</g>
</g>
<defs>
<clipPath id="clip0_11_283">
<rect width="463" height="160" fill="white"/>
</clipPath>
</defs>
</svg>