<svg width="378" height="384" viewBox="0 0 378 384" fill="none" xmlns="http://www.w3.org/2000/svg">
<path d="M53.6856 272.429C55.6854 273.168 57.6991 273.87 59.6709 274.665C60.6196 275.048 61.5032 275.61 62.41 276.101C64.5307 277.242 66.6467 278.388 68.772 279.525C70.2369 280.311 71.7111 281.082 73.2644 281.906C71.9064 283.023 71.9204 283.005 73.1853 284.109C73.3992 284.296 73.3899 284.731 73.5062 285.039C73.7992 285.802 73.9713 286.672 74.4596 287.285C74.906 287.851 74.999 288.206 74.6549 288.805C74.4596 289.142 74.4363 289.581 74.2689 290.236C74.2736 290.236 73.9062 290.353 73.7992 290.596C73.3667 291.583 72.8877 291.667 71.832 291.303C71.2135 291.087 69.73 291.672 69.5626 292.196C69.0231 293.894 67.6558 293.538 66.7164 293.44C65.2097 293.286 63.9261 293.258 62.7449 294.39C62.424 294.698 61.7264 294.67 61.2009 294.68C59.2709 294.708 57.3363 294.647 55.4063 294.698C53.6112 294.75 52.3602 293.506 50.8674 292.855C49.0444 292.06 47.2958 291.106 45.51 290.231C43.9381 289.46 42.3848 288.641 40.7758 287.953C39.7387 287.509 38.6319 287.196 37.5343 286.924C36.2043 286.592 34.8556 286.171 33.507 286.129C31.8374 286.078 30.3586 285.568 28.8797 284.918C28.703 284.838 28.517 284.773 28.3309 284.74C26.587 284.459 24.8477 284.179 23.1037 283.922C21.4016 283.669 19.6809 283.505 17.9928 283.178C17.179 283.019 16.4395 282.486 15.6257 282.298C13.6027 281.821 11.5518 281.457 9.51953 281.026C8.47316 280.802 7.91044 280.325 7.89184 279.043C7.87324 277.649 8.10111 276.045 6.58039 275.058C7.64071 273.856 8.09181 272.588 7.84998 271.096C7.80813 270.848 7.98485 270.371 8.17087 270.306C9.07308 269.983 9.10098 269.276 9.13353 268.509C9.17539 267.569 9.24514 266.629 9.34746 265.698C9.37071 265.506 9.54278 265.287 9.70555 265.156C10.2404 264.725 10.8961 264.403 11.3379 263.897C12.2215 262.887 13.3516 262.513 14.5654 262.073C15.2722 261.816 15.7094 260.703 16.1791 259.922C17.6161 257.555 19.0531 255.188 20.4111 252.779C21.2714 251.254 21.9597 249.631 22.7875 248.088C23.5595 246.652 24.4152 245.263 25.2383 243.855C26.1266 242.33 26.973 240.772 27.9263 239.289C28.7774 237.966 29.74 236.712 30.6655 235.435C33.9906 230.87 37.3158 226.3 40.6688 221.754C40.9478 221.375 41.4222 221.136 41.8454 220.804C42.0035 221.164 42.1802 221.567 42.4592 222.203C43.4126 221.23 44.1567 220.229 45.124 219.551C46.0588 218.896 47.2214 218.578 48.3561 218.082C48.5003 218.456 48.6352 218.798 48.8258 219.284C49.3932 218.877 49.8955 218.517 50.5698 218.035C50.6442 218.657 50.686 219.144 50.7651 219.621C51.1232 221.707 54.1321 223.166 55.7923 221.721C56.5085 221.099 57.1642 221.342 57.6014 222.497C57.8618 223.19 58.2013 223.461 58.9082 223.723C59.7546 224.036 60.4475 224.785 61.159 225.402C61.2986 225.519 61.3358 226.015 61.2195 226.132C60.1545 227.198 61.0846 227.858 61.6846 228.569C61.931 228.863 62.317 229.06 62.4891 229.387C62.6472 229.687 62.7728 230.197 62.6286 230.435C61.9403 231.562 61.1776 232.648 60.3917 233.705C59.0896 235.459 57.6804 237.133 56.4388 238.929C54.4669 241.797 52.63 244.757 50.6674 247.634C49.8815 248.785 48.877 249.781 48.0492 250.904C47.8353 251.189 47.9143 251.694 47.8585 252.096C48.2538 252.106 48.7096 252.255 49.0258 252.101C51.6627 250.824 54.239 249.425 56.8945 248.195C58.8663 247.283 60.9544 246.624 62.9449 245.744C64.5586 245.033 66.1026 244.173 67.6744 243.368C68.279 243.059 68.8789 242.732 69.4649 242.381C70.2369 241.918 70.0881 241.217 69.8834 240.52C69.4556 239.046 68.9254 237.596 68.6139 236.099C68.2558 234.392 68.0976 232.647 67.8233 230.922C67.4419 228.517 66.9118 226.132 66.6653 223.714C66.4327 221.431 66.4281 219.12 66.4281 216.824C66.4281 212.773 66.3676 208.713 66.5909 204.672C66.7955 200.916 67.3396 197.183 67.707 193.437C67.8233 192.277 67.8233 191.103 67.9256 189.938C68.0976 188.011 68.2976 186.084 68.5162 184.161C68.7394 182.183 68.3348 181.654 66.4048 181.949C60.4801 182.852 54.5088 182.402 48.5654 182.697C45.2496 182.861 41.9337 183.006 38.6133 183.128C37.6878 183.16 36.7577 183.076 35.8276 183.025C34.9951 182.978 34.665 183.38 35.0091 184.147C35.1765 184.521 35.4788 184.853 35.7764 185.153C38.2552 187.651 40.6967 190.186 43.2545 192.604C44.9659 194.222 46.8959 195.602 48.6212 197.207C49.6304 198.142 50.5791 199.073 50.8395 200.705C51.0395 201.959 52.0486 203.24 53.0113 204.181C54.346 205.481 54.2716 207.67 52.5881 208.465C51.5278 208.966 50.4396 209.401 49.3746 209.887C49.17 209.981 48.9653 210.116 48.8212 210.285C47.7655 211.534 46.3006 211.674 44.8543 210.968C44.1753 210.635 43.1661 210.57 42.4592 210.818C41.4315 211.178 40.5153 211.894 39.5992 212.525C39.176 212.82 38.9016 213.33 38.483 213.638C38.1343 213.896 37.6273 214.214 37.2786 214.13C36.5205 213.952 35.7904 213.573 35.0928 213.199C34.4603 212.862 33.8976 212.39 33.2744 212.029C32.7536 211.73 32.1723 211.543 31.6561 211.244C30.6143 210.64 29.475 210.135 28.596 209.34C26.7637 207.684 25.0849 205.855 23.327 204.115C21.5551 202.361 19.7507 200.645 17.9881 198.876C15.8861 196.767 13.8957 194.536 11.7053 192.529C8.47781 189.573 5.21778 186.64 1.77174 183.951C-0.0233688 182.552 -0.218691 180.91 0.162652 179.063C0.334722 178.23 1.16252 177.543 1.65082 176.762C1.8694 176.411 2.06007 176.018 2.15308 175.616C2.45537 174.357 2.66464 173.076 2.99948 171.832C3.08319 171.513 3.46453 171.237 3.76217 171.027C4.70157 170.358 5.46891 169.628 6.07348 168.553C7.06404 166.785 8.47316 165.278 10.5519 164.68C10.5891 164.67 10.6357 164.661 10.6589 164.638C12.4075 162.982 14.8955 162.453 16.5139 160.512C17.5696 159.249 19.1508 158.449 20.4064 157.341C21.6714 156.232 22.7456 154.899 24.0478 153.837C27.0985 151.349 30.2283 148.964 33.3303 146.545C35.3672 144.955 37.3716 143.327 39.455 141.802C41.7942 140.095 44.1893 138.472 46.5936 136.858C47.6958 136.119 49.3885 136.582 50.221 137.56C50.6674 138.084 51.365 138.477 52.0254 138.715C53.6298 139.305 55.304 139.712 56.8992 140.324C57.4758 140.544 58.2385 141.017 57.4898 141.915C57.3689 142.06 57.4061 142.345 57.3456 142.724C57.8851 142.64 58.3129 142.574 58.485 142.551C58.9454 143.093 59.3035 143.505 59.6523 143.926C59.7732 144.071 59.9825 144.235 59.9685 144.375C59.815 146.007 61.1218 146.69 61.8241 147.378C61.8938 148.126 61.9822 148.589 61.9682 149.052C61.9589 149.37 61.9124 149.791 61.7078 149.983C60.1731 151.443 58.5919 152.846 57.0387 154.286C55.8621 155.376 54.7134 156.49 53.5461 157.593C52.3091 158.767 51.0209 159.899 49.8396 161.13C48.9374 162.07 48.1701 163.136 47.2074 164.315C47.7004 164.479 47.9748 164.656 48.2352 164.638C50.0815 164.507 51.9277 164.334 53.7693 164.175C54.3088 164.128 54.8483 164.039 55.3877 164.03C60.1127 163.95 64.8376 163.885 69.5672 163.814C71.66 163.786 71.9529 163.384 72.2134 161.331C72.4738 159.282 73.0086 157.271 73.4179 155.241C73.4551 155.049 73.5155 154.857 73.5155 154.665C73.5155 151.821 74.5433 149.221 75.4176 146.592C76.1338 144.431 77.0313 142.336 77.7754 140.184C78.366 138.486 78.7613 136.718 79.3938 135.034C80.1193 133.107 81.0122 131.25 81.8167 129.356C82.3841 128.023 82.9189 126.676 83.4816 125.342C84.2675 123.481 84.6396 121.432 86.0673 119.856C86.2394 119.669 86.0627 118.789 85.8162 118.649C82.6213 116.867 79.3984 115.136 76.157 113.438C73.8131 112.208 71.4321 111.044 69.0696 109.856C66.3258 108.476 63.5773 107.101 60.8382 105.721C58.1083 104.345 55.3831 102.961 52.6532 101.59C51.9091 101.216 51.4255 101.642 51.4487 102.311C51.5324 104.467 51.7417 106.623 51.9091 108.78C51.9324 109.088 52.044 109.388 52.0533 109.696C52.137 112.227 52.7044 114.645 53.3415 117.092C53.9089 119.276 54.0716 121.587 54.1972 123.855C54.2437 124.655 53.7321 125.539 53.2996 126.278C53.1508 126.531 52.4579 126.563 52.03 126.526C51.0999 126.442 50.6256 126.722 50.7046 127.733C50.7837 128.729 50.4117 129.215 49.3234 129.473C48.3422 129.702 47.5562 130.09 46.5331 129.487C46.1657 129.267 45.2961 129.627 44.8031 129.95C43.766 130.628 42.8592 131.507 41.8268 132.2C41.5012 132.419 40.9478 132.307 40.5014 132.331C39.6317 132.377 38.6691 132.181 37.911 132.494C36.1903 133.201 35.6555 133.158 34.5998 131.507C34.1627 131.872 33.7442 132.237 33.3116 132.583C32.6745 133.093 32.2048 132.925 32.1583 132.115C32.1118 131.39 32.0328 130.834 31.1631 130.665C30.9538 130.623 30.7725 130.142 30.6795 129.833C30.0191 127.62 29.3215 125.413 28.7588 123.172C28.3309 121.47 28.01 119.734 27.7589 117.994C27.3032 114.814 26.8614 111.628 26.5637 108.429C26.3545 106.184 26.5172 103.901 26.28 101.661C26.0243 99.2097 25.4569 96.7914 25.1128 94.3498C24.764 91.9082 24.5268 89.4479 24.2199 86.9969C24.1548 86.4777 23.9873 85.9679 23.8525 85.458C23.7874 85.2008 23.5502 84.864 23.6432 84.705C24.4198 83.3438 23.9269 81.8096 24.285 80.4017C24.3361 80.2006 24.4896 79.9995 24.6431 79.8545C25.1267 79.4007 25.6615 79.0078 25.229 78.1986C25.1453 78.0443 25.4476 77.7169 25.4383 77.4736C25.4057 76.6224 25.4569 75.7243 25.1965 74.9385C25.0105 74.3865 24.936 74.1106 25.4523 73.8112C26.959 72.9412 28.396 71.9215 29.9772 71.2199C32.9257 69.9102 35.995 68.8672 38.9434 67.5528C41.8454 66.2618 44.6264 64.6996 47.519 63.3899C49.9792 62.2767 52.523 61.3505 55.0296 60.3496C56.555 59.7368 58.0618 59.0633 59.6151 58.5534C60.7777 58.1699 62.0054 57.9781 63.2099 57.7349C64.7214 57.4308 66.2374 56.9631 67.7488 56.9584C68.7208 56.9584 69.6974 57.6507 70.6647 58.0483C71.46 58.3757 72.2645 58.6937 73.0412 59.0679C74.0689 59.5684 75.0641 60.1531 76.0919 60.6536C76.557 60.8781 77.1197 60.9202 77.5615 61.1821C78.1986 61.5657 78.8822 61.9773 79.338 62.548C80.1472 63.5583 80.8354 64.6715 81.5051 65.7847C82.7654 67.8709 82.2074 69.0823 79.9239 69.7278C78.8822 70.0225 77.9521 70.6867 76.9476 71.1357C75.2874 71.8701 73.6364 72.6325 71.9297 73.2499C70.874 73.6335 69.8555 73.8814 69.1394 74.9011C68.3441 76.033 66.9955 76.323 65.7491 76.7393C63.7401 77.4128 61.759 78.1565 59.7592 78.8488C59.3965 78.9751 58.9919 78.9658 58.6338 79.1014C58.378 79.1949 57.9781 79.4428 57.992 79.5878C58.0199 79.8778 58.2246 80.2754 58.471 80.4017C60.0569 81.2296 61.6799 81.9874 63.275 82.7966C66.084 84.2185 68.9022 85.6358 71.6879 87.1045C74.6177 88.6527 77.5057 90.2851 80.4402 91.8287C83.263 93.3114 86.1417 94.6866 88.9646 96.1693C91.5642 97.5352 94.1313 98.9665 96.7031 100.388C97.6657 100.922 98.4796 100.692 99.1399 99.6961C100.233 98.0497 101.312 96.3845 102.474 94.7895C105.934 90.0419 109.613 85.4627 113.812 81.3606C116.765 78.4746 119.956 75.8365 123.016 73.0582C124.234 71.9496 125.378 70.7569 126.569 69.6156C127.555 68.6707 128.587 67.768 129.554 66.8044C131.043 65.317 131.061 64.9568 129.778 63.3759C127.35 60.3963 124.871 57.4636 122.486 54.456C121.304 52.9686 120.323 51.3268 119.17 49.816C117.3 47.3697 115.375 44.9655 113.44 42.566C113.217 42.29 112.817 42.1637 112.389 41.9018C111.785 43.5997 111.236 45.1853 110.659 46.7616C110.134 48.2069 109.599 49.6429 109.05 51.0789C108.734 51.9021 108.436 52.7394 108.036 53.5205C107.697 54.18 107.209 54.7647 106.795 55.3915C106.283 56.1586 105.725 56.7245 104.725 56.0837C104.576 55.9902 104.2 56.0416 104.07 56.1726C103.372 56.8836 102.605 57.5665 102.084 58.3991C101.419 59.4608 101.191 59.5965 100 59.1615C99.5259 58.9884 98.8842 58.9136 98.4331 59.0913C97.2379 59.5638 96.1217 60.2467 94.9312 60.7378C94.3964 60.9576 93.5547 61.2055 93.1966 60.9529C92.0153 60.1017 91.3736 60.7284 90.6899 61.5563C90.6202 61.6405 90.5086 61.6826 90.6062 61.6171C89.6622 61.4113 88.839 61.3692 88.1461 61.0418C87.2625 60.6209 86.4812 59.9894 85.6767 59.4141C85.1186 59.0165 84.5466 58.6142 84.0862 58.1137C83.7839 57.7863 83.5235 57.2765 83.5142 56.8462C83.4723 54.4794 83.5607 52.1079 83.5142 49.7365C83.477 47.7906 84.0769 46.0132 84.7233 44.2452C85.7883 41.3545 86.8765 38.4732 88.0345 35.6246C88.7879 33.7771 89.704 31.995 90.5086 30.1661C91.3224 28.3091 92.0618 26.4241 92.8757 24.5672C93.2803 23.6457 93.9035 22.8038 94.1871 21.8543C94.7638 19.9365 95.1684 17.9627 95.6567 16.0215C95.8381 15.2965 96.1915 14.5949 96.2473 13.8699C96.3171 12.9391 96.1915 11.9943 96.0985 11.0588C96.0706 10.7781 95.7311 10.4647 95.7962 10.2449C96.1264 9.11295 96.545 8.0044 96.9263 6.88649C97.1263 6.30649 97.1449 5.53472 97.5448 5.18391C98.7633 4.1081 100.112 3.17729 101.428 2.21841C101.795 1.9518 102.214 1.72728 102.642 1.58696C103.572 1.28293 104.511 1.00228 105.465 0.791797C111.873 -0.61611 118.365 0.310022 124.816 0.179053C126.671 0.141634 128.531 0.93212 130.405 1.24083C131.582 1.43728 132.805 1.36244 133.982 1.55422C135.828 1.85357 137.651 2.31664 139.497 2.63938C140.441 2.80309 141.418 2.80777 142.376 2.87793C146.027 3.14922 149.682 3.39713 153.328 3.70116C155.277 3.86019 157.216 4.10342 159.155 4.33729C159.439 4.37003 159.774 4.48229 159.964 4.67874C160.574 5.3102 161.285 5.56746 162.131 5.81536C163.01 6.07262 163.699 6.95666 164.512 7.50391C165.089 7.89214 165.712 8.24295 166.359 8.49553C167.377 8.89311 168.447 9.15037 169.461 9.55263C169.721 9.65553 169.902 10.0484 170.047 10.3431C170.247 10.7547 170.558 11.2178 170.507 11.6247C170.191 14.216 172.651 15.4696 173.307 17.7475C172.377 17.958 171.456 18.2246 171 19.263C170.902 19.4875 170.14 19.5249 169.702 19.4688C168.498 19.3191 167.731 19.7962 167.163 20.8486C166.977 21.1854 166.489 21.438 166.089 21.5549C165.657 21.6765 165.168 21.6204 164.703 21.597C162.587 21.4941 160.718 22.2659 158.792 23.0236C157.737 23.4399 156.648 24.0106 155.667 24.2538C154.086 24.6467 152.277 24.0994 150.566 23.9451C150.412 23.9311 150.254 23.8422 150.114 23.8656C146.822 24.4409 143.52 23.8048 140.316 23.4399C136.874 23.047 133.461 23.2201 130.047 23.0096C129.606 22.9815 129.145 23.2575 128.694 23.3932C128.885 23.8188 128.996 24.3099 129.28 24.6654C132.596 28.8003 135.944 32.9164 139.279 37.0419C141.934 40.3255 144.58 43.6137 147.245 46.8832C148.208 48.0619 149.226 49.1986 150.212 50.3399C153.477 48.4502 156.541 46.5277 159.741 44.8673C162.15 43.6184 164.731 42.7156 167.224 41.6258C168.824 40.9289 170.381 40.129 171.991 39.4648C173.753 38.7398 175.562 38.1271 177.343 37.4442C179.134 36.7613 180.906 36.0316 182.701 35.3674C183.556 35.0493 184.44 34.7967 185.324 34.5722C186.547 34.2635 187.793 34.0484 189.012 33.7303C190.374 33.3748 191.718 32.9211 193.081 32.5563C194.225 32.2475 195.373 31.9388 196.541 31.7517C198.438 31.443 200.354 31.2653 202.247 30.9612C210.743 29.5908 219.296 30.269 227.825 30.3485C231.536 30.3812 235.238 31.0735 238.944 31.4711C239.214 31.4992 239.479 31.574 239.749 31.5927C243.404 31.8687 247.064 32.0464 250.705 32.444C252.78 32.6685 254.812 33.2625 256.872 33.6508C258.486 33.9595 260.127 34.1513 261.727 34.5067C263.136 34.8201 264.504 35.3019 265.894 35.6948C267.08 36.0316 268.285 36.2982 269.452 36.6817C271.447 37.3366 273.409 38.1037 275.409 38.7351C277.297 39.3292 279.241 39.7642 281.129 40.3582C282.39 40.7558 283.599 41.3264 284.836 41.8129C286.501 42.4724 288.193 43.0711 289.83 43.7961C292.002 44.755 294.244 45.625 296.248 46.8645C298.997 48.5718 301.606 50.5269 304.173 52.5055C305.354 53.4129 306.233 54.7086 307.372 55.6815C308.772 56.8789 310.321 57.9033 311.772 59.0446C313.395 60.3215 314.939 61.7013 316.604 62.9221C318.208 64.1009 319.933 65.1159 321.58 66.2431C322.175 66.6501 322.686 67.188 323.24 67.6557C324.812 68.9794 326.351 70.3499 327.974 71.6081C329.541 72.8196 331.281 73.8112 332.792 75.0835C334.657 76.6504 336.364 78.4138 338.145 80.0883C338.963 80.8554 339.833 81.5711 340.596 82.3896C342.916 84.8921 345.242 87.3898 347.469 89.9764C349.069 91.838 350.715 93.7137 351.98 95.8045C354.031 99.1956 356.463 102.353 358.035 106.057C359.142 108.663 360.784 111.034 362.016 113.593C363.169 115.988 364.127 118.481 365.132 120.95C365.941 122.948 366.708 124.959 367.452 126.98C368.141 128.855 368.792 130.75 369.429 132.644C370.285 135.203 371.14 137.766 371.945 140.343C372.359 141.662 372.67 143.014 373.01 144.356C373.414 145.956 373.833 147.556 374.191 149.165C374.517 150.629 374.777 152.111 375.047 153.585C375.423 155.62 375.791 157.654 376.149 159.694C376.27 160.391 376.368 161.092 376.437 161.794C376.712 164.455 376.977 167.121 377.228 169.787C377.437 172.028 377.679 174.273 377.781 176.523C377.902 179.273 377.925 182.033 377.93 184.788C377.939 189.503 378.037 194.222 377.846 198.928C377.688 202.801 377.126 206.655 376.828 210.523C376.628 213.124 376.707 215.753 376.437 218.344C376.163 220.973 375.633 223.573 375.186 226.183C374.944 227.587 374.679 228.985 374.363 230.374C373.996 231.974 373.605 233.574 373.135 235.145C372.391 237.652 371.601 240.145 370.773 242.624C370.024 244.856 369.262 247.087 368.387 249.271C367.615 251.198 366.718 253.074 365.815 254.94C365.067 256.488 364.244 258.004 363.411 259.505C362.049 261.966 360.686 264.421 359.263 266.844C358.668 267.859 357.886 268.762 357.254 269.758C356.291 271.264 355.38 272.799 354.454 274.328C353.859 275.31 353.315 276.33 352.668 277.28C351.315 279.272 349.962 281.274 348.506 283.192C346.646 285.652 344.669 288.024 342.772 290.456C341.591 291.971 340.489 293.552 339.312 295.077C338.875 295.648 338.326 296.134 337.843 296.672C336.387 298.291 335.057 300.04 333.466 301.504C331.104 303.679 328.56 305.648 326.1 307.711C325.547 308.174 325.021 308.674 324.468 309.138C322.24 310.99 320.036 312.88 317.757 314.662C315.985 316.051 314.148 317.37 312.265 318.6C309.67 320.298 307.023 321.912 304.359 323.502C302.889 324.381 301.373 325.191 299.829 325.939C297.499 327.071 295.118 328.109 292.774 329.213C291.174 329.966 289.626 330.817 288.012 331.533C285.319 332.731 282.599 333.877 279.878 335.008C277.739 335.897 275.6 336.795 273.419 337.572C271.619 338.217 269.763 338.699 267.926 339.246C267.043 339.508 266.155 339.77 265.262 340.004C263.518 340.467 261.723 340.785 260.03 341.398C257.267 342.394 254.389 342.605 251.533 343.072C247.697 343.704 243.818 343.905 239.986 344.424C231.145 345.622 222.295 344.784 213.455 344.911C210.009 344.962 206.549 344.508 203.098 344.218C201.228 344.064 199.359 343.839 197.503 343.535C195.508 343.208 193.536 342.75 191.555 342.352C191.518 342.343 191.476 342.324 191.444 342.329C188.333 342.675 185.603 341.103 182.677 340.514C179.799 339.934 177.022 338.835 174.2 337.969C173.186 337.661 172.163 337.385 171.153 337.052C169.316 336.449 167.48 335.836 165.661 335.182C163.601 334.442 161.55 333.689 159.518 332.88C156.658 331.744 153.798 330.593 150.975 329.363C147.612 327.894 144.232 326.449 140.967 324.784C137.744 323.142 134.656 321.238 131.508 319.456C130.471 318.871 129.452 318.231 128.359 317.777C127.634 317.473 126.857 317.365 126.178 318.202C123.792 321.145 121.36 324.049 118.881 326.917C116.147 330.078 113.333 333.17 110.576 336.313C109.487 337.553 108.436 338.821 107.409 340.107C107.246 340.313 107.153 340.734 107.25 340.953C107.334 341.145 107.748 341.314 107.999 341.286C110.985 340.958 113.961 340.537 116.951 340.261C119.03 340.069 121.128 340.027 123.22 339.985C125.388 339.943 127.559 339.985 129.731 339.981C130.503 339.981 131.103 340.116 131.536 340.935C131.945 341.707 132.61 342.371 133.656 342.319C134.475 342.277 134.879 342.698 134.856 343.526C134.828 344.513 135.242 344.981 136.279 345.102C136.749 345.158 137.177 345.729 137.586 346.108C138.032 346.524 138.437 346.987 139.023 347.605C139.014 347.638 138.921 347.942 138.804 348.32C138.953 348.4 139.107 348.526 139.274 348.559C140.032 348.699 140.204 349.326 139.865 349.77C138.86 351.085 139.437 352.165 140.153 353.279C140.311 353.526 140.465 353.784 140.688 354.144C140.186 354.27 139.795 354.368 139.414 354.467C139.121 356.197 138.418 356.595 136.916 356.473C135.479 356.356 134.172 356.763 132.926 357.46C132.596 357.647 132.224 357.825 131.852 357.867C129.285 358.148 126.704 358.344 124.141 358.658C120.984 359.041 117.84 359.537 114.682 359.935C113.301 360.108 111.901 360.108 110.52 360.285C107.306 360.702 104.079 361.062 100.898 361.67C97.0612 362.404 93.2756 363.405 89.4529 364.224C87.6578 364.607 85.8162 364.79 84.0164 365.164C82.9003 365.393 81.826 365.805 80.7331 366.151C80.5146 366.221 80.3006 366.469 80.1193 366.436C78.2126 366.076 77.0406 367.456 75.6222 368.274C75.2827 368.471 74.72 368.536 74.3712 368.391C73.2039 367.91 72.711 368.045 72.1622 369.158C71.9808 369.533 71.7623 369.893 71.5111 370.225C70.7856 371.179 70.0416 371.254 69.1161 370.487C68.3348 369.837 67.5721 369.065 66.4467 369.406C65.7584 369.617 65.1352 370.038 64.6283 370.594C63.9168 370.543 63.2099 370.496 62.1729 370.421C61.7869 369.715 61.3962 368.536 60.6242 367.727C60.0057 367.086 58.9175 366.581 58.0385 366.586C55.8528 366.586 55.4807 366.623 55.6389 363.817C55.6482 363.625 55.6203 363.386 55.7133 363.241C56.741 361.646 55.6203 360.29 55.2668 358.845C55.2017 358.587 54.9924 358.302 55.0529 358.087C55.6714 355.996 56.3039 353.91 56.9875 351.843C57.6944 349.719 58.4989 347.633 59.1965 345.509C59.936 343.259 60.6568 341 61.2893 338.722C61.666 337.366 61.8473 335.953 62.145 334.569C62.41 333.329 62.7216 332.099 63.0007 330.864C63.1913 330.004 63.382 329.143 63.5401 328.278C63.9215 326.224 64.2842 324.166 64.6562 322.108C64.7307 321.687 64.8376 321.276 64.8888 320.855C65.1678 318.502 65.2794 316.116 65.7538 313.806C66.0886 312.164 66.8513 310.602 67.5256 309.049C67.8977 308.193 68.2093 307.388 69.0045 306.621C69.9858 305.672 70.3252 303.946 70.6973 302.496C70.9624 301.457 71.8553 300.017 72.8784 299.806C73.0691 299.769 73.3574 299.942 73.5248 300.101C74.5665 301.078 75.7292 301.733 77.1848 301.911C77.9568 302.004 78.6962 302.383 79.4542 302.613C79.6682 302.678 80.0263 302.786 80.1146 302.687C80.9657 301.738 82.1097 302.313 83.091 302.075C84.4582 301.738 85.2814 302.425 85.686 303.749C85.9836 304.736 86.0068 306.06 87.4904 306.303C87.6485 306.326 87.8159 306.888 87.8112 307.201C87.8019 308.403 88.2996 309.25 89.2994 309.919C89.6017 310.12 89.7738 310.737 89.7552 311.149C89.7226 311.869 89.4854 312.58 89.3413 313.296C88.9274 315.373 88.5135 317.449 88.1042 319.526C88.0159 319.985 87.9322 320.443 87.8578 320.901C87.6299 322.276 87.3787 323.652 87.1974 325.031C87.1183 325.64 87.1834 326.266 87.1834 326.884C87.309 326.926 87.4299 326.968 87.5555 327.01C88.5972 325.714 89.6389 324.419 90.676 323.123C92.8617 320.391 95.0521 317.669 97.2239 314.928C98.8656 312.856 100.461 310.747 102.116 308.684C103.767 306.626 105.455 304.596 107.157 302.575C107.916 301.677 107.795 301.354 106.646 300.526C104.883 299.249 103.074 297.996 101.498 296.508C98.5772 293.749 95.7637 290.868 92.9873 287.953C90.4528 285.292 88.2949 282.331 86.3975 279.165C85.1744 277.13 83.6955 275.25 82.4724 273.215C80.9006 270.605 79.4542 267.915 77.98 265.245C77.3894 264.169 76.9616 262.985 76.2686 261.989C76.0547 261.68 75.1339 261.634 74.6456 261.802C73.5248 262.185 72.4784 262.78 71.3995 263.285C68.9022 264.445 66.4048 265.6 63.9075 266.765C60.894 268.173 57.8804 269.571 54.8808 271.012C54.4204 271.232 54.053 271.662 53.6484 271.994C53.6484 272.148 53.6577 272.303 53.6624 272.457L53.6856 272.429ZM110.241 227.75C111.445 227.933 112.557 228.269 113.654 228.227C114.887 228.181 115.752 228.597 116.417 229.551C116.951 230.313 117.333 231.202 117.965 231.862C118.551 232.47 118.593 233.097 118.663 233.85C118.733 234.649 118.863 235.59 119.333 236.179C120.114 237.161 121.388 237.849 120.058 239.289C119.649 239.734 119.402 240.431 118.914 240.693C116.891 241.768 114.803 242.727 112.738 243.719C110.162 244.954 107.585 246.175 105.009 247.4C102.632 248.532 100.261 249.678 97.875 250.791C96.0613 251.638 94.215 252.414 92.406 253.275C89.5227 254.641 86.6672 256.063 83.7839 257.424C82.2911 258.13 81.7377 258.986 82.305 259.964C83.6862 262.349 85.0581 264.749 86.4858 267.106C88.5879 270.577 90.7597 274.005 92.8617 277.476C94.8336 280.741 97.0798 283.805 99.8143 286.443C103.377 289.876 107.055 293.183 110.734 296.49C111.017 296.747 111.91 296.77 112.171 296.523C113.366 295.391 114.473 294.16 115.547 292.907C117.607 290.503 119.616 288.052 121.662 285.633C122.504 284.642 123.36 283.66 124.248 282.71C126.448 280.367 128.62 277.991 130.936 275.764C131.382 275.338 132.568 275.259 133.186 275.535C135.107 276.386 136.898 276.185 138.842 275.656C139.721 275.418 140.823 275.853 141.762 276.162C141.99 276.237 141.906 277.069 142.102 277.49C142.339 277.995 142.65 278.505 143.046 278.893C143.915 279.74 145.464 279.455 146.12 280.713C146.171 280.816 146.403 280.811 146.538 280.881C147.385 281.302 148.301 281.63 149.063 282.172C150.226 282.995 150.426 285.053 149.687 286.33C149.547 286.574 149.696 287.299 149.854 287.355C150.817 287.673 150.691 288.407 150.742 289.156C150.84 290.62 149.831 291.228 148.929 292.121C146.31 294.708 143.841 297.449 141.418 300.227C139.455 302.477 137.679 304.89 135.749 307.173C134.596 308.544 133.303 309.792 132.089 311.111C131.257 312.019 131.284 312.309 132.317 312.866C135.768 314.732 139.223 316.584 142.688 318.418C145.366 319.83 148.045 321.247 150.761 322.585C152.928 323.652 155.128 324.667 157.36 325.574C159.695 326.524 162.09 327.319 164.452 328.198C166.07 328.802 167.661 329.494 169.298 330.036C172.149 330.981 175.023 331.861 177.897 332.731C178.999 333.063 180.12 333.334 181.245 333.582C182.668 333.895 184.101 334.157 185.533 334.438C187.747 334.868 189.96 335.308 192.179 335.715C192.709 335.813 193.267 335.743 193.797 335.836C195.936 336.22 198.057 336.772 200.21 337.006C203.605 337.375 207.028 337.782 210.432 337.74C219.5 337.628 228.588 338.521 237.642 337.212C240.446 336.809 243.307 337.212 246.148 336.533C248.431 335.986 250.859 336.398 253.254 335.869C255.37 335.406 257.514 335.027 259.597 334.391C260.481 334.12 261.369 333.872 262.253 333.61C264.341 332.988 266.448 332.422 268.512 331.73C270.847 330.948 273.158 330.083 275.46 329.213C277.474 328.451 279.492 327.698 281.45 326.804C283.706 325.775 285.887 324.587 288.11 323.488C289.696 322.702 291.323 322.005 292.881 321.163C294.397 320.345 295.83 319.367 297.322 318.506C300.787 316.509 304.387 314.713 307.716 312.505C311.437 310.04 314.985 307.29 318.492 304.516C321.473 302.154 324.37 299.666 327.165 297.084C330.713 293.805 333.931 290.213 336.764 286.274C338.754 283.505 340.851 280.816 342.907 278.093C344.544 275.923 346.307 273.837 347.795 271.564C349.683 268.678 351.343 265.642 353.115 262.681C354.64 260.127 356.263 257.625 357.7 255.02C358.64 253.312 359.384 251.488 360.114 249.673C361.635 245.903 363.197 242.138 364.537 238.303C365.681 235.038 366.764 231.717 367.466 228.34C368.383 223.905 368.894 219.382 369.582 214.901C369.629 214.593 369.652 214.284 369.699 213.975C370.089 211.262 370.689 208.559 370.829 205.832C371.136 199.985 371.271 194.129 371.354 188.273C371.387 185.836 371.103 183.399 370.964 180.962C370.75 177.276 370.601 173.581 370.294 169.904C370.066 167.163 369.634 164.436 369.289 161.705C369.271 161.551 369.224 161.401 369.192 161.246C368.815 159.39 368.438 157.528 368.057 155.671C367.862 154.726 367.666 153.781 367.457 152.841C367.178 151.592 366.89 150.343 366.601 149.094C366.285 147.701 365.978 146.307 365.643 144.922C365.434 144.062 365.206 143.201 364.927 142.364C364.318 140.507 363.676 138.659 363.039 136.812C362.644 135.661 362.225 134.52 361.816 133.378C361.481 132.438 361.156 131.493 360.807 130.558C359.937 128.247 359.068 125.932 358.17 123.631C357.682 122.377 357.128 121.152 356.621 119.907C355.752 117.793 354.98 115.632 354.012 113.565C353.143 111.703 351.929 110.005 351.106 108.125C349.483 104.43 347.111 101.207 344.767 98.0076C342.688 95.1684 340.159 92.6613 337.815 90.0279C336.285 88.3113 334.852 86.473 333.146 84.9529C330.318 82.4364 327.318 80.1211 324.365 77.7496C321.603 75.5278 318.813 73.3341 316.022 71.1498C314.422 69.8962 312.809 68.6567 311.158 67.4639C310.465 66.9588 309.702 66.3226 308.912 66.2291C307.702 66.0888 307.079 65.4854 306.475 64.5452C305.205 62.5713 303.573 61.0278 301.215 60.387C299.629 59.9567 298.076 59.4047 296.532 58.8294C296.057 58.6517 295.709 58.2728 296.137 57.6366C296.788 56.6684 296.639 56.2989 295.504 56.0837C294.56 55.9013 294.123 55.3728 293.742 54.4887C293.318 53.5205 292.658 52.5663 291.872 51.8647C290.161 50.3305 287.854 49.9142 285.808 49.0255C283.529 48.0292 281.092 47.3931 278.716 46.626C277.623 46.2752 276.507 46.0039 275.409 45.6624C273.479 45.0637 271.554 44.4416 269.629 43.8195C269.01 43.6184 268.419 43.3237 267.792 43.174C265.452 42.6174 263.104 42.1029 260.76 41.5743C257.891 40.9289 255.035 40.2366 252.152 39.6613C250.501 39.3339 248.817 39.1468 247.139 38.9971C244.506 38.7632 241.883 38.7398 239.237 38.2674C235.642 37.6313 231.927 37.5751 228.257 37.5097C218.519 37.3319 208.753 36.3543 199.089 38.7398C196.848 39.2918 194.499 39.5116 192.258 40.2039C189.597 41.0271 186.909 41.7521 184.235 42.5239C183.356 42.7764 182.468 43.0103 181.599 43.2956C180.436 43.6745 179.297 44.1142 178.134 44.4977C176.46 45.0544 174.748 45.5127 173.107 46.1582C171.577 46.7569 170.112 47.5334 168.628 48.249C166.047 49.4932 163.429 50.6673 160.904 52.0237C159.053 53.02 157.323 54.2502 155.551 55.3915C154.788 55.8826 154.663 56.645 155.156 57.3139C156.653 59.3439 158.248 61.2991 159.778 63.301C161.504 65.5555 163.234 67.8101 164.903 70.1114C166.573 72.408 167.935 74.9759 169.865 77.0106C171.307 78.5307 170.381 80.4157 171.358 81.8611C171.409 81.9359 171.316 82.2025 171.219 82.282C170.414 82.9369 170.065 84.1577 168.749 84.2045C168.47 84.2138 168.191 84.6582 167.94 84.9342C167.103 85.8603 166.363 86.9034 165.41 87.6892C164.964 88.054 164.117 87.9464 163.448 87.9979C162.955 88.04 162.401 87.8482 161.969 88.0166C159.267 89.0737 156.583 90.1776 153.914 91.3095C152.793 91.7866 151.961 91.5574 151.407 90.4676C150.877 89.4245 150.245 88.7182 148.882 89.0596C148.157 89.2421 147.329 89.1672 146.575 89.0363C145.269 88.8117 144.966 88.068 145.529 86.9221C145.659 86.6554 145.613 86.2672 145.562 85.9445C145.469 85.3411 145.352 84.7283 145.171 84.1483C144.971 83.4982 144.766 82.8246 144.418 82.254C144.018 81.6085 143.432 81.0893 142.962 80.4859C141.697 78.8488 140.46 77.193 139.204 75.5512C138.274 74.3351 137.358 73.1049 136.367 71.9449C135.986 71.4959 135.572 70.8598 134.782 71.669C133.777 72.698 132.591 73.5399 131.517 74.5081C129.122 76.6598 126.727 78.8067 124.378 81.0098C122.532 82.7404 120.723 84.5132 118.965 86.3374C116.677 88.7135 114.38 91.085 112.236 93.5874C109.855 96.3752 107.655 99.3173 105.362 102.18C104.325 103.471 104.539 104.35 106.065 104.963C106.274 105.047 106.441 105.22 106.641 105.332C108.529 106.432 110.39 107.582 112.315 108.611C114.91 110.001 117.547 111.315 120.184 112.625C121.965 113.509 123.797 114.294 125.569 115.202C125.871 115.356 126.206 115.974 126.127 116.264C125.885 117.106 126.029 117.672 126.736 118.191C126.978 118.368 127.006 118.813 127.183 119.103C127.545 119.702 127.899 120.314 128.336 120.857C128.717 121.334 129.234 121.703 129.643 122.162C130.192 122.784 130.229 123.392 129.503 123.953C129.178 124.206 128.727 124.501 128.657 124.842C128.438 125.904 127.778 126.025 126.927 125.866C125.681 125.632 125.02 126.142 124.829 127.391C124.709 128.168 124.248 128.589 123.411 128.663C121.751 128.808 120.021 128.383 118.449 129.309C117.482 129.88 116.468 130.371 115.459 130.871C114.97 131.114 114.459 131.381 113.929 131.461C113.324 131.549 112.682 131.367 112.078 131.437C110.436 131.634 109.036 131.171 107.669 130.249C106.706 129.599 105.562 129.215 104.502 128.715C102.674 127.859 100.819 127.05 99.019 126.138C97.1077 125.165 95.2614 124.07 93.35 123.102C93.1036 122.976 92.4478 123.191 92.3037 123.439C91.7084 124.463 91.2015 125.544 90.7271 126.629C89.5878 129.229 88.467 131.835 87.3695 134.459C86.7323 135.988 86.1464 137.541 85.5604 139.094C85.0209 140.53 84.4908 141.971 83.9978 143.421C83.1282 145.993 82.2818 148.575 81.44 151.157C81.1889 151.92 80.9052 152.682 80.7703 153.468C80.4495 155.325 80.2123 157.201 79.9286 159.067C79.9053 159.216 79.7984 159.352 79.7751 159.502C79.6217 160.489 79.3938 161.476 79.3659 162.467C79.3426 163.305 79.9705 163.534 80.7285 163.44C81.4912 163.342 82.2492 163.225 83.0119 163.169C87.774 162.809 92.5734 163.576 97.3355 162.561C99.1585 162.173 101.121 162.397 103.018 162.472C103.456 162.491 103.888 163.019 104.293 163.356C104.795 163.777 105.246 164.259 105.748 164.68C106.004 164.89 106.344 164.993 106.609 165.19C108.325 166.466 110.111 167.641 112.175 168.253C113.622 168.684 113.724 168.801 113.147 169.764C113.315 170.723 113.575 171.425 113.519 172.098C113.436 173.094 113.733 173.796 114.44 174.465C114.742 174.75 114.933 175.288 114.952 175.723C114.989 176.574 114.677 177.168 113.952 177.851C113.208 178.548 112.78 178.581 111.878 178.487C111.106 178.408 109.873 178.782 109.543 179.362C108.98 180.349 108.311 180.358 107.446 180.373C105.702 180.401 103.953 180.382 102.219 180.527C100.772 180.648 99.3492 181.126 97.9029 181.177C90.9039 181.416 83.9048 181.575 76.9058 181.729C75.8315 181.752 75.3618 182.318 75.1944 183.258C74.7618 185.686 74.9665 188.156 74.3619 190.616C73.762 193.048 74.0968 195.658 73.6736 198.217C73.004 202.291 73.483 206.477 73.0319 210.635C72.5947 214.663 72.3994 218.826 73.4132 222.918C73.8876 224.832 73.6597 226.876 74.0689 228.887C74.5619 231.328 74.9386 233.784 75.6082 236.198C76.4407 239.191 76.3895 239.219 79.1706 238.036C79.2403 238.008 79.324 237.998 79.3938 237.97C81.2028 237.166 83.0212 236.389 84.8117 235.543C87.0625 234.481 89.2715 233.326 91.5317 232.283C95.1917 230.599 98.8749 228.98 102.53 227.343C102.874 227.502 103.27 227.858 103.604 227.806C104.679 227.638 105.841 227.526 106.753 227.011C107.957 226.328 109.139 226.576 110.348 226.59C110.431 226.59 110.515 226.726 110.622 226.824C110.515 227.105 110.413 227.371 110.259 227.778L110.241 227.75Z" fill="white"/>
<path d="M243.46 67.7259C247.45 67.7259 250.594 67.4032 253.635 67.8242C256.323 68.1937 259.011 68.1656 261.676 68.4977C264.02 68.7924 266.345 69.2975 268.643 69.8588C270.712 70.364 272.731 71.0703 274.777 71.6737C275.144 71.7813 275.535 71.8701 275.916 71.8561C277.735 71.8047 279.348 72.4969 281.013 73.0956C282.85 73.7551 284.775 74.1574 286.636 74.7514C288.314 75.2893 289.979 75.8787 291.607 76.5429C294.867 77.8666 298.169 79.1155 301.322 80.659C304.522 82.226 307.6 84.0408 310.66 85.8744C312.981 87.2682 315.195 88.8399 317.436 90.3647C319.664 91.8849 321.887 93.4144 324.068 95C324.803 95.538 325.384 96.2863 326.063 96.9084C327.128 97.8813 328.314 98.742 329.281 99.8038C331.257 101.983 333.178 104.219 335.02 106.521C336.694 108.616 338.35 110.744 339.801 112.999C341.256 115.258 342.489 117.672 343.749 120.057C344.605 121.671 345.377 123.336 346.111 125.01C347.227 127.546 348.344 130.085 349.343 132.667C350.353 135.273 351.255 137.92 352.124 140.572C352.52 141.77 352.729 143.033 353.008 144.267C353.436 146.171 353.845 148.075 354.264 149.979C354.282 150.053 354.301 150.128 354.31 150.208C354.58 152.467 354.785 154.736 355.138 156.981C355.403 158.641 355.863 160.274 356.231 161.915C356.305 162.252 356.375 162.598 356.417 162.94C356.621 164.624 356.845 166.303 357.012 167.991C357.105 168.955 357.138 169.923 357.138 170.891C357.142 178.764 357.189 186.636 357.096 194.508C357.068 196.973 356.719 199.442 356.394 201.893C356.003 204.831 355.529 207.754 355.003 210.673C354.71 212.296 354.24 213.886 353.85 215.491C353.794 215.715 353.729 215.949 353.729 216.178C353.724 218.409 353.055 220.491 352.427 222.605C351.785 224.775 351.45 227.035 350.794 229.2C350.139 231.361 349.269 233.457 348.446 235.562C347.33 238.42 346.237 241.287 345.009 244.098C344.121 246.133 343.051 248.088 342.037 250.066C340.666 252.742 339.298 255.417 337.875 258.065C337.131 259.454 336.317 260.81 335.471 262.134C333.913 264.571 332.415 267.059 330.695 269.375C328.686 272.083 326.509 274.67 324.319 277.238C322.761 279.066 321.166 280.881 319.408 282.509C317.431 284.343 315.264 285.97 313.158 287.659C311.939 288.636 310.721 289.628 309.428 290.507C307.275 291.971 305.056 293.342 302.871 294.759C301.624 295.564 300.42 296.438 299.136 297.173C298.015 297.818 296.82 298.342 295.639 298.88C293.686 299.759 291.747 300.671 289.751 301.448C287.928 302.159 286.04 302.702 284.18 303.319C283.05 303.693 281.934 304.1 280.795 304.442C279.59 304.806 278.376 305.167 277.144 305.428C274.521 305.985 271.819 306.266 269.28 307.066C267.545 307.613 265.838 307.393 264.146 307.664C257.137 308.801 250.078 308.338 243.042 308.212C240.2 308.16 237.373 307.458 234.54 307.014C233.215 306.804 231.913 306.341 230.587 306.275C228.992 306.191 227.63 305.569 226.197 305.007C225.137 304.591 223.965 304.465 222.867 304.128C220.71 303.469 218.556 302.781 216.417 302.056C213.394 301.036 210.381 300.003 207.381 298.927C206.093 298.464 204.851 297.86 203.582 297.336C202.703 296.972 201.801 296.654 200.931 296.27C199.047 295.437 197.178 294.577 195.304 293.73C192.718 292.566 190.114 291.452 187.561 290.222C186.393 289.661 185.342 288.852 184.217 288.192C181.817 286.784 179.301 285.545 177.023 283.964C174.121 281.957 171.307 279.787 168.624 277.49C165.885 275.151 163.331 272.588 160.722 270.095C158.499 267.976 156.263 265.871 154.128 263.664C152.161 261.62 150.231 259.524 148.45 257.316C145.111 253.172 141.72 249.056 139.251 244.28C137.526 240.941 135.633 237.69 133.963 234.327C133.168 232.722 132.731 230.936 132.094 229.247C131.568 227.858 130.954 226.506 130.443 225.112C129.782 223.311 129.164 221.497 128.564 219.672C127.95 217.806 127.285 215.949 126.806 214.05C126.35 212.254 126.076 210.406 125.778 208.573C125.35 205.977 124.946 203.372 124.578 200.766C124.216 198.194 123.704 195.616 123.62 193.03C123.462 188.32 123.458 183.595 123.62 178.885C123.7 176.659 124.309 174.456 124.699 172.243C125.002 170.527 125.276 168.801 125.685 167.107C126.313 164.483 127.034 161.878 127.732 159.268C128.229 157.406 128.722 155.545 129.285 153.702C129.801 152.018 130.289 150.315 130.996 148.711C132.229 145.905 133.535 143.131 134.958 140.418C136.219 138.018 137.684 135.731 139.037 133.378C140.293 131.199 141.46 128.968 142.767 126.821C143.999 124.795 145.325 122.826 146.673 120.876C148.24 118.607 149.817 116.339 151.505 114.159C152.868 112.395 154.384 110.749 155.867 109.084C158.062 106.619 160.229 104.126 162.513 101.745C163.899 100.3 165.494 99.0647 166.959 97.6989C167.959 96.7634 168.828 95.6736 169.875 94.7896C172.06 92.9467 174.237 91.0757 176.571 89.4292C180.148 86.9081 183.794 84.4711 187.523 82.1839C189.56 80.935 191.844 80.0884 193.992 79.0126C196.504 77.759 198.954 76.3745 201.498 75.1958C203.159 74.4287 204.94 73.9282 206.66 73.2968C207.591 72.9553 208.502 72.5484 209.441 72.2397C210.562 71.8701 211.697 71.5614 212.836 71.2574C213.794 71.0001 214.766 70.785 215.734 70.5605C217.664 70.1067 219.598 69.6577 221.533 69.2087C221.607 69.19 221.686 69.1759 221.761 69.1713C225.132 68.8719 228.55 68.8064 231.871 68.2217C236.033 67.4874 240.195 67.9645 243.46 67.7353V67.7259ZM298.783 112.082C298.481 111.694 298.188 111.292 297.867 110.917C296.927 109.823 295.783 109.046 294.388 108.653C294.151 108.588 293.881 108.448 293.737 108.256C292.542 106.712 291.021 105.824 289.045 105.707C288.668 105.683 288.194 105.459 287.956 105.169C286.073 102.877 283.762 101.17 281.101 99.9067C279.144 98.9759 277.2 98.003 275.219 97.1236C273.433 96.3284 271.656 95.3789 269.773 94.9673C267.378 94.4481 265.197 93.0075 262.625 93.26C262.588 93.26 262.551 93.232 262.513 93.2226C260.918 92.8391 259.342 92.3246 257.723 92.1C254.984 91.7212 252.194 91.665 249.445 91.4826C244.465 91.1505 239.437 90.8278 234.419 91.796C231.876 92.2871 229.211 91.9083 226.62 92.5912C224.704 93.0963 222.677 93.1805 220.705 93.4612C220.556 93.4846 220.412 93.5641 220.268 93.6062C219.022 93.9944 217.794 94.4949 216.524 94.7475C214.073 95.2386 211.678 95.8326 209.451 97.0254C208.753 97.3996 207.93 97.5399 207.191 97.8439C205.795 98.4239 204.396 98.9993 203.042 99.6681C201.545 100.402 200.085 101.216 198.629 102.035C196.666 103.139 194.681 104.205 192.788 105.426C190.988 106.586 189.295 107.91 187.57 109.187C185.756 110.524 183.868 111.783 182.185 113.275C180.101 115.122 178.194 117.166 176.218 119.131C174.4 120.936 172.479 122.653 170.795 124.575C168.684 126.994 166.726 129.548 164.778 132.106C162.838 134.66 160.904 137.228 159.141 139.903C157.118 142.972 155.314 146.185 153.351 149.296C151.984 151.466 150.821 153.73 149.933 156.139C149.761 156.602 149.468 157.023 149.305 157.491C148.65 159.408 147.999 161.331 147.389 163.267C146.989 164.549 146.631 165.844 146.324 167.149C146.003 168.511 145.715 169.881 145.501 171.261C145.045 174.17 144.343 177.084 144.287 180.008C144.148 187.51 143.711 195.036 144.869 202.511C145.218 204.775 145.506 207.048 145.934 209.298C146.227 210.846 146.72 212.362 147.12 213.886C147.371 214.845 147.613 215.804 147.868 216.758C148.189 217.979 148.45 219.219 148.864 220.407C149.384 221.889 150.031 223.321 150.631 224.775C151.691 227.339 152.649 229.949 153.84 232.446C155.77 236.497 158.346 240.174 161.197 243.597C164.354 247.391 167.759 250.988 171.181 254.547C172.898 256.334 174.888 257.859 176.767 259.487C178.185 260.717 179.566 262.003 181.073 263.116C184.254 265.464 187.458 267.789 190.746 269.978C192.658 271.25 194.718 272.308 196.769 273.346C198.438 274.188 200.187 274.871 201.912 275.596C203.386 276.213 204.861 276.849 206.367 277.373C208.121 277.981 209.92 278.463 211.692 279.015C214.687 279.95 217.673 280.923 220.677 281.84C222.547 282.411 224.43 282.944 226.323 283.445C228.053 283.903 229.797 284.291 231.536 284.707C231.834 284.778 232.145 284.806 232.448 284.862C234.55 285.264 236.638 285.75 238.754 286.045C240.051 286.228 241.386 286.167 242.702 286.139C248.562 286.022 254.44 286.578 260.281 285.498C262.988 284.997 265.764 284.89 268.512 284.6C268.629 284.586 268.74 284.553 268.852 284.516C271.112 283.828 273.377 283.145 275.632 282.444C276.804 282.079 277.986 281.723 279.134 281.279C280.595 280.713 282.036 280.095 283.455 279.431C284.966 278.73 286.491 278.028 287.928 277.186C290.021 275.956 292.114 274.693 294.081 273.271C296.96 271.185 299.834 269.071 302.513 266.737C304.908 264.655 307.131 262.349 309.256 259.983C310.865 258.191 312.251 256.184 313.637 254.201C315.115 252.092 316.473 249.893 317.906 247.742C318.882 246.273 319.989 244.884 320.864 243.354C322.017 241.334 323.007 239.215 324.04 237.129C324.854 235.487 325.686 233.85 326.398 232.166C327.044 230.632 327.505 229.018 328.118 227.465C329.002 225.22 330.039 223.026 330.848 220.753C331.657 218.47 332.402 216.141 332.932 213.779C333.578 210.893 333.978 207.951 334.48 205.032C334.513 204.84 334.508 204.644 334.55 204.452C334.955 202.576 335.466 200.719 335.75 198.83C336.08 196.641 336.373 194.428 336.401 192.221C336.485 185.784 336.894 179.358 336.778 172.917C336.666 167.014 336.443 161.134 335.066 155.362C335.001 155.1 334.917 154.843 334.848 154.581C334.471 153.178 334.099 151.779 333.727 150.376C333.657 150.114 333.629 149.843 333.546 149.586C333.155 148.388 332.746 147.2 332.35 146.003C331.709 144.057 331.118 142.092 330.43 140.161C329.904 138.678 329.272 137.237 328.681 135.773C327.849 133.71 327.081 131.62 326.165 129.599C325.486 128.107 324.533 126.741 323.854 125.249C322.812 122.957 321.533 120.838 319.999 118.832C316.911 114.79 313.274 111.329 309.358 108.139C309.074 107.905 308.293 107.858 308.051 108.073C306.949 109.07 305.954 110.183 304.926 111.263C304.745 111.451 304.503 111.652 304.452 111.886C304.191 113.12 303.536 112.873 302.885 112.293C301.657 111.207 300.369 111.072 298.773 112.059L298.783 112.082Z" fill="white"/>
<path d="M224.374 256.671C225.063 256.671 225.858 256.783 226.611 256.647C228.667 256.283 230.727 255.885 232.75 255.371C234.224 254.996 235.661 254.444 237.094 253.911C239.112 253.153 241.144 252.414 243.102 251.521C244.483 250.89 245.744 249.991 247.069 249.238C249.422 247.901 251.822 246.633 254.138 245.23C256.161 244.009 258.095 242.643 260.063 241.334C263.253 239.215 266.276 236.885 268.759 233.939C270.838 231.469 273.065 229.125 274.591 226.207C275.939 223.634 277.632 221.239 278.939 218.653C279.748 217.053 280.176 215.243 280.66 213.498C280.785 213.044 280.576 212.422 280.353 211.959C279.167 209.494 277.781 207.118 276.739 204.597C275.335 201.201 274.14 197.716 272.926 194.241C272.121 191.949 271.433 189.611 270.694 187.295C270.308 186.084 269.643 185.864 268.643 186.664C266.806 188.132 264.964 189.592 263.178 191.121C259.202 194.541 255.254 197.997 251.301 201.44C247.953 204.358 244.637 207.315 241.256 210.196C239.596 211.608 237.866 212.942 236.094 214.209C234.629 215.257 233.015 215.191 231.411 214.452C231.201 214.354 230.987 214.265 230.764 214.2C228.923 213.643 228.876 211.753 229.848 210.692C230.969 209.471 232.397 208.545 233.629 207.413C236.456 204.817 239.233 202.165 242.056 199.564C245.465 196.421 248.841 193.24 252.343 190.205C255.519 187.454 258.816 184.835 262.127 182.244C263.681 181.027 265.387 180.008 267.034 178.918C267.899 178.343 268.22 177.599 268.038 176.551C267.555 173.735 267.122 170.91 266.666 168.09C266.648 167.973 266.629 167.86 266.62 167.744C266.345 164.114 266.378 160.428 265.736 156.868C264.792 151.644 265.662 146.368 264.964 141.204C264.476 137.616 264.299 134.038 264.625 130.53C264.941 127.083 264.955 123.64 265.243 120.211C265.308 119.435 266.197 118.523 266.941 118.046C269.159 116.633 271.601 115.983 274.279 116.455C275.065 116.596 275.902 116.484 276.711 116.413C277.521 116.343 278.004 116.507 277.883 117.466C277.47 120.67 276.939 123.864 276.711 127.083C276.512 129.889 276.172 132.738 276.995 135.53C277.093 135.857 277.111 136.218 277.121 136.568C277.172 138.514 277.144 140.469 277.274 142.411C277.46 145.147 277.679 147.888 278.028 150.605C278.395 153.468 278.93 156.307 279.409 159.151C279.911 162.121 280.427 165.087 280.948 168.052C281.232 169.666 281.818 169.834 283.487 168.73C286.529 166.724 289.524 164.652 292.593 162.683C294.388 161.532 296.309 160.582 298.123 159.455C300.559 157.94 302.931 156.317 305.363 154.796C306.735 153.94 308.182 153.211 309.577 152.387C310.953 151.578 312.265 150.652 313.669 149.904C316.232 148.533 318.831 147.233 321.44 145.956C322.05 145.657 322.547 145.83 323.156 146.386C324.779 147.86 324.928 149.773 325.012 151.695C325.077 153.3 323.896 154.38 322.305 154.357C321.119 154.338 320.208 154.815 319.245 155.503C317.58 156.695 315.762 157.668 314.004 158.725C312.269 159.764 310.512 160.751 308.796 161.817C305.805 163.679 302.829 165.568 299.862 167.468C297.713 168.843 295.597 170.274 293.439 171.64C290.365 173.59 287.273 175.513 284.171 177.421C283.39 177.903 283.171 178.413 283.469 179.344C284.087 181.294 284.478 183.315 285.124 185.256C285.789 187.244 286.659 189.166 287.431 191.121C287.808 192.08 288.147 193.058 288.533 194.017C289.082 195.368 289.64 196.72 290.226 198.058C291.142 200.135 292.1 202.188 293.021 204.265C294.132 206.777 295.249 209.284 296.309 211.819C297.123 213.76 297.839 215.743 298.611 217.703C299.071 218.877 299.578 220.033 300.02 221.216C300.476 222.446 301.015 223.672 301.238 224.949C301.35 225.589 300.927 226.384 300.592 227.025C299.806 228.527 298.025 229.322 297.769 231.3C297.695 231.876 296.499 232.33 295.783 232.783C295.249 233.12 294.686 233.471 294.081 233.635C292.974 233.934 291.83 234.112 290.7 234.322C290.44 234.369 290.138 234.397 289.891 234.322C288.273 233.812 287.533 235.019 286.715 235.983C285.608 237.288 284.613 238.686 283.501 239.982C282.171 241.535 280.836 243.097 279.381 244.524C277.897 245.978 276.335 247.386 274.67 248.626C271.48 250.997 268.234 253.298 264.932 255.502C263.49 256.465 261.844 257.129 260.286 257.91C258.184 258.963 256.1 260.067 253.952 261.021C251.72 262.013 249.459 262.976 247.139 263.706C244.879 264.417 242.511 264.782 240.205 265.352C235.545 266.503 230.815 265.909 226.118 265.834C223.923 265.797 221.742 265.081 219.552 264.669C218.078 264.393 216.58 264.211 215.134 263.823C213.143 263.289 211.19 262.621 209.232 261.975C207.386 261.367 205.526 260.778 203.712 260.076C202.075 259.44 200.489 258.682 198.894 257.948C197.448 257.279 196.015 256.591 194.592 255.876C193.644 255.399 192.676 254.94 191.811 254.342C189.267 252.578 186.7 250.833 184.268 248.925C180.404 245.894 177.116 242.241 174.065 238.42C172.228 236.118 170.786 233.49 169.224 230.973C168.14 229.228 167.019 227.484 166.145 225.627C164.694 222.554 163.411 219.396 162.085 216.263C161.439 214.738 160.806 213.203 160.271 211.641C159.871 210.463 159.644 209.223 159.323 208.016C159.044 206.982 158.737 205.953 158.439 204.924C158.272 204.335 158.058 203.76 157.928 203.166C157.5 201.173 157.049 199.181 156.714 197.169C156.546 196.178 156.681 195.144 156.56 194.143C155.626 186.435 155.546 178.684 155.942 170.957C156.123 167.411 156.384 163.777 157.681 160.348C158.169 159.058 158.309 157.64 158.709 156.312C159.062 155.152 159.518 154.015 160.016 152.907C160.899 150.942 161.797 148.978 162.792 147.069C163.717 145.292 165.731 144.955 167.252 146.195C167.475 146.377 167.833 146.639 168.038 146.569C169.791 145.984 171.098 146.737 172.33 147.86C172.507 148.023 172.856 148.136 173.084 148.089C174.581 147.785 175.455 148.842 176.153 149.768C176.576 150.325 176.604 151.452 176.376 152.186C175.841 153.908 175.028 155.535 174.367 157.215C173.637 159.072 172.86 160.919 172.293 162.832C171.842 164.338 171.809 165.966 171.358 167.468C170.554 170.129 171.089 172.912 170.54 175.527C170.051 177.865 169.791 180.214 170.182 182.459C170.758 185.789 170.298 189.161 170.87 192.417C171.209 194.349 171.186 196.266 171.475 198.166C171.819 200.443 172.298 202.707 172.898 204.929C173.377 206.707 174.153 208.4 174.744 210.149C175.042 211.028 175.121 211.983 175.455 212.843C176.167 214.658 176.948 216.445 177.757 218.218C178.706 220.304 179.613 222.423 180.724 224.42C181.92 226.567 183.268 228.639 184.673 230.66C186.44 233.209 188.277 235.707 190.184 238.148C190.937 239.112 191.923 239.912 192.876 240.693C195.76 243.045 198.601 245.459 201.605 247.639C204.135 249.472 206.8 251.142 209.539 252.639C211.539 253.733 213.739 254.463 215.869 255.314C218.571 256.395 221.375 256.928 224.384 256.666L224.374 256.671Z" fill="white"/>
<path d="M216.794 137.326C217.752 136.676 218.631 136.147 219.431 135.516C221.872 133.598 224.286 131.652 226.704 129.707C230.234 126.867 233.759 124.019 237.289 121.184C240.688 118.448 244.027 115.628 247.529 113.036C248.943 111.988 250.757 111.497 252.333 110.651C254.998 109.219 257.858 109.149 260.742 109.393C261.811 109.481 262.899 109.828 263.885 110.272C264.192 110.412 264.35 111.278 264.285 111.773C264.201 112.428 263.881 113.078 263.564 113.677C263.337 114.107 263.02 114.664 262.62 114.804C260.621 115.511 259.346 117.115 257.821 118.425C257.263 118.906 256.347 119.337 255.663 119.243C253.417 118.944 251.673 120.006 250.05 121.198C247.255 123.256 244.627 125.548 241.87 127.663C238.907 129.936 235.856 132.092 232.88 134.351C230.225 136.367 227.625 138.463 224.984 140.493C224.137 141.143 223.221 141.7 222.342 142.303C221.3 143.023 220.212 143.692 219.249 144.506C218.961 144.749 218.822 145.465 218.938 145.862C219.473 147.668 220.119 149.436 220.728 151.218C220.952 151.868 221.165 152.523 221.426 153.159C222.802 156.532 224.165 159.909 225.588 163.267C226.323 165.007 227.123 166.724 227.974 168.408C228.681 169.802 229.485 171.153 230.294 172.491C231.364 174.264 232.48 176.009 233.568 177.772C234.926 179.975 236.308 182.169 237.619 184.4C238.451 185.817 239.293 187.253 239.889 188.773C240.149 189.437 239.884 190.354 239.726 191.131C239.437 192.567 238.526 193.544 237.368 194.41C236.805 194.831 236.675 195.831 236.117 196.266C234.889 197.221 233.527 197.997 232.187 198.797C232.001 198.909 231.629 198.727 231.35 198.661C229.653 198.259 227.546 198.764 226.681 196.496C226.244 195.354 225.765 194.222 225.221 193.123C224.644 191.963 224.026 190.817 223.328 189.723C221.631 187.061 219.761 184.507 218.184 181.78C216.524 178.909 215.097 175.896 213.622 172.921C212.46 170.578 211.251 168.239 210.293 165.807C209.353 163.412 208.702 160.9 207.925 158.44C207.442 156.906 207.005 155.353 206.46 153.838C206.233 153.211 205.726 153.131 205.154 153.58C203.791 154.642 202.373 155.629 201.033 156.719C197.266 159.783 193.532 162.884 189.784 165.975C188.463 167.065 187.212 168.253 185.793 169.198C185.203 169.591 184.175 169.745 183.51 169.516C182.459 169.161 181.501 168.454 180.59 167.781C179.799 167.196 179.766 166.261 180.399 165.62C182.929 163.061 185.482 160.522 188.133 158.089C190.37 156.036 192.746 154.137 195.081 152.186C196.16 151.284 197.276 150.423 198.378 149.548C199.024 149.034 199.666 148.51 200.336 148.019C201.419 147.228 202.521 146.471 203.61 145.685C204.214 145.245 204.544 144.698 204.335 143.884C203.907 142.2 203.461 140.516 203.145 138.809C202.777 136.83 202.596 134.819 202.228 132.84C201.87 130.918 201.382 129.024 200.95 127.115C200.908 126.928 200.819 126.746 200.801 126.554C200.531 124.14 200.285 121.718 199.996 119.304C199.787 117.545 199.461 115.796 199.308 114.033C199.182 112.583 199.494 112.456 200.838 112.063C201.833 111.769 202.703 111.072 203.652 110.595C204.145 110.347 204.684 110.047 205.209 110.029C206.833 109.968 208.465 110.019 210.088 110.043C211.357 110.061 211.939 110.698 212.148 111.928C212.525 114.164 213.008 116.381 213.446 118.602C213.483 118.794 213.529 118.981 213.553 119.178C213.85 121.404 214.106 123.635 214.445 125.852C214.887 128.715 215.371 131.573 215.901 134.421C216.068 135.315 216.436 136.171 216.799 137.312L216.794 137.326Z" fill="white"/>
</svg>